<?xml version="1.0" encoding="UTF-8"?>
<svg version="1.1" xmlns="http://www.w3.org/2000/svg" width="1006" height="430">
<path d="M0 0 C331.98 0 663.96 0 1006 0 C1006 141.9 1006 283.8 1006 430 C674.02 430 342.04 430 0 430 C0 288.1 0 146.2 0 0 Z " fill="#003742" transform="translate(0,0)"/>
<path d="M0 0 C149.16 0 298.32 0 452 0 C452 109.89 452 219.78 452 333 C447 328 447 328 446.46411133 324.9765625 C446.5030249 323.87054688 446.54193848 322.76453125 446.58203125 321.625 C446.60716797 320.39136719 446.63230469 319.15773438 446.65820312 317.88671875 C446.73458008 315.96279297 446.73458008 315.96279297 446.8125 314 C447.56405465 290.07345676 442.2720476 269.06295979 426.41015625 250.453125 C420.50988861 244.44766621 414.39598112 239.89527754 405.8125 239.75 C395.46286057 239.91298645 389.63210293 244.26579153 382 251 C381.26136719 251.64324219 380.52273438 252.28648437 379.76171875 252.94921875 C374.66048968 257.68538812 371.602006 262.56450425 369 269 C368.70351563 269.7115625 368.40703125 270.423125 368.1015625 271.15625 C364.95931628 279.99187302 364.75232828 289.72083427 364 299 C359.97059599 295.18266989 356.70516795 291.10206943 353.4375 286.625 C349.4139523 281.18394565 345.31729193 275.82476462 341.0625 270.5625 C336.82337269 265.31741941 332.69544482 260.00193917 328.625 254.625 C324.25724528 248.86183613 319.76031518 243.23738024 315.125 237.6875 C307.82496434 228.94398949 301.02575387 219.84591624 294.26831055 210.6796875 C293.10601383 209.05994537 293.10601383 209.05994537 292 208 C290.18113837 207.8816357 288.35773169 207.83260388 286.53515625 207.81054688 C285.3594104 207.7937941 284.18366455 207.77704132 282.97229004 207.75978088 C281.68205933 207.74624069 280.39182861 207.7327005 279.0625 207.71875 C277.71723787 207.70096753 276.37198228 207.68268367 275.0267334 207.66392517 C272.16734406 207.62478448 269.30793892 207.58837521 266.44848633 207.5541687 C259.10091326 207.46587375 251.75358632 207.35983909 244.40625 207.25390625 C243.68629349 207.24366991 242.96633698 207.23343357 242.2245636 207.22288704 C230.64662729 207.05725513 219.07300458 206.81951084 207.5 206.4375 C206.82404785 206.41526367 206.1480957 206.39302734 205.45166016 206.37011719 C201.96749392 206.2540072 198.48362418 206.13135392 195 206 C194.75403076 205.19248291 194.50806152 204.38496582 194.25463867 203.55297852 C193.9166626 202.48490967 193.57868652 201.41684082 193.23046875 200.31640625 C192.90199951 199.26138916 192.57353027 198.20637207 192.23510742 197.11938477 C190.25493755 192.11827181 187.24087013 188.29597451 183 185 C180.61032244 184.19969308 180.61032244 184.19969308 178.1875 183.75 C175.890625 183.16015625 175.890625 183.16015625 174 182 C172.85813479 178.92538753 172.3927978 175.92047888 171.8515625 172.6875 C169.39156747 162.03504445 162.10241195 151.77328091 153.0703125 145.703125 C142.38515697 139.78123158 128.85601422 139.36565481 117.3125 142.625 C106.62917384 146.31911399 97.76668156 151.90176681 91.91015625 161.8515625 C90.82480243 164.21666188 90.06659907 166.52767239 89.703125 169.10546875 C89.375 171.25 89.375 171.25 88 175 C85.83653299 176.02551035 83.70032964 176.52867377 81.3828125 177.12109375 C76.15785385 179.0483326 73.20682446 183.68539139 70.71484375 188.46484375 C68.38597067 193.88218651 67.76460304 197.88317566 67 204 C54.13 204 41.26 204 28 204 C27.86828442 187.8462752 27.73764237 171.69254284 27.60884857 155.53879452 C27.54898478 148.03456511 27.48867871 140.53033979 27.42724609 133.02612305 C27.37356316 126.46840994 27.32079684 119.91069014 27.26903296 113.3529616 C27.24171739 109.89620552 27.21401008 106.43945382 27.18519592 102.98270988 C27.02523893 83.65454538 26.97148843 64.32865767 27 45 C34.62454224 44.5788269 34.62454224 44.5788269 37.44116211 44.43188477 C41.02044292 44.53795177 41.02044292 44.53795177 44 43 C44.52765453 40.16158806 44.52765453 40.16158806 44 37 C41.76674901 34.40271149 41.76674901 34.40271149 38.6875 32.1875 C38.14279053 31.76009521 37.59808105 31.33269043 37.03686523 30.89233398 C35.91055189 30.00880701 34.77872741 29.13226214 33.64160156 28.26269531 C31.23893877 26.41460311 28.90283154 24.48861357 26.5625 22.5625 C25.67046875 21.83546875 24.7784375 21.1084375 23.859375 20.359375 C20.08798717 17.24746482 16.37325494 14.07084507 12.65380859 10.8972168 C9.57083903 8.28177346 6.44223386 5.77292229 3.1875 3.375 C2.135625 2.59125 1.08375 1.8075 0 1 C0 0.67 0 0.34 0 0 Z " fill="#30B9AD" transform="translate(554,0)"/>
<path d="M0 0 C151.14 0 302.28 0 458 0 C454.64792302 3.35207698 451.52662972 6.30689545 447.875 9.25 C446.42287109 10.425625 446.42287109 10.425625 444.94140625 11.625 C443.97074219 12.40875 443.00007813 13.1925 442 14 C439.36924426 16.15207688 436.74231361 18.30814861 434.125 20.4765625 C431.71312225 22.45269434 429.24117848 24.33593989 426.75 26.2109375 C426.01676514 26.77522461 425.28353027 27.33951172 424.52807617 27.92089844 C423.07549193 29.03814781 421.60974053 30.13852778 420.13012695 31.21972656 C419.46456787 31.73760742 418.79900879 32.25548828 418.11328125 32.7890625 C417.51298096 33.23975098 416.91268066 33.69043945 416.29418945 34.15478516 C414.33007879 36.57951457 414.33007879 36.57951457 415 43 C419.62 43.66 424.24 44.32 429 45 C429.13227176 60.13740817 429.26278603 75.27483067 429.39115143 90.41227245 C429.45083447 97.44551023 429.51107918 104.47874227 429.57275391 111.51196289 C429.83988095 142.00801928 430.10083941 172.50247716 430 203 C428.68 202.67 427.36 202.34 426 202 C425.9906543 201.12899658 425.98130859 200.25799316 425.97167969 199.3605957 C425.92710844 196.06297899 425.86525687 192.76655336 425.79248047 189.46948242 C425.76462082 188.05488497 425.74323631 186.64014197 425.72900391 185.2253418 C425.52792798 166.34431231 419.78964262 153.20077037 407.30859375 139.09375 C405.07905551 136.79426678 405.07905551 136.79426678 401.83984375 135.91796875 C399 134 399 134 398.27612305 131.77783203 C397.78309742 128.79432717 397.43810653 125.82015771 397.125 122.8125 C395.23174809 108.89746236 391.64575724 96.43177502 380.10546875 87.4140625 C370.91008315 81.23831187 361.31803493 80.64117025 350.5078125 82.6484375 C337.0972543 86.34028529 329.84852141 94.35613564 323 106 C320.30789937 111.15790875 319.05277366 116.16758073 318.3828125 121.921875 C318.22111572 123.25013306 318.22111572 123.25013306 318.05615234 124.60522461 C317.85622603 126.37315358 317.69088919 128.14543208 317.56494141 129.92016602 C317.17121259 133.60034711 316.89249813 136.09293551 314.23486328 138.79394531 C312.20362395 140.28423896 310.11917798 141.63937933 308 143 C292.08116236 159.15554898 291.50179615 179.76883167 291 201 C284.73 201 278.46 201 272 201 C272 189.12 272 177.24 272 165 C274.97 164.67 277.94 164.34 281 164 C285.49732649 159.12862121 284.77174059 152.28059218 285 146 C285.05285156 144.87078125 285.10570312 143.7415625 285.16015625 142.578125 C285.3393368 135.94065421 285.00670657 130.02720536 282 124 C279.64641749 121.64641749 279.07031606 121.72128096 275.8671875 121.5859375 C275.06152344 121.54726562 274.25585938 121.50859375 273.42578125 121.46875 C272.58402344 121.4378125 271.74226563 121.406875 270.875 121.375 C270.02550781 121.33632812 269.17601562 121.29765625 268.30078125 121.2578125 C266.20088316 121.16343506 264.10047109 121.08062414 262 121 C262.28617187 120.43023437 262.57234375 119.86046875 262.8671875 119.2734375 C263.24101562 118.52320312 263.61484375 117.77296875 264 117 C264.35320312 116.31164062 264.70640625 115.62328125 265.0703125 114.9140625 C268.38809955 107.7132358 269.19029425 100.84904182 268 93 C266.67510502 89.57671644 265.14682553 86.50422569 263.3125 83.328125 C262 81 262 81 262 79 C263.66427936 77.71181224 265.38358879 76.49433774 267.125 75.3125 C274.71086872 69.90098697 279.46798475 65.06702602 282 56 C282.43589143 53.06909809 282.52531375 50.21042718 282.5 47.25 C282.49427979 46.4650415 282.48855957 45.68008301 282.48266602 44.87133789 C282.15063439 33.95901215 277.62865245 24.76301228 270 17 C258.58996439 6.85774612 245.5811318 5.10218494 230.83984375 5.6328125 C219.43228118 6.33260963 212.69343811 11.74518332 205 20 C199.50901119 27.2503754 198.59515583 35.19795846 198 44 C197.23816406 44.20753906 196.47632813 44.41507813 195.69140625 44.62890625 C184.84539008 47.86510833 176.88315068 53.16260051 171 63 C167.56686917 69.87801895 167.70383336 80.12854535 170.0625 87.4375 C172.39363603 92.54169358 176.61760134 96.56161808 180.49609375 100.53125 C185.3998577 106.23533151 185.37953988 113.80451477 186 121 C185.19780029 121.0093457 184.39560059 121.01869141 183.5690918 121.02832031 C179.94126361 121.08193742 176.31473708 121.16560298 172.6875 121.25 C171.42486328 121.26417969 170.16222656 121.27835937 168.86132812 121.29296875 C167.04858398 121.34130859 167.04858398 121.34130859 165.19921875 121.390625 C163.52605591 121.4220459 163.52605591 121.4220459 161.8190918 121.45410156 C158.9726891 121.77096649 158.9726891 121.77096649 157.13964844 123.54394531 C155.5498393 126.97014068 155.5515554 130.20123069 155.56640625 133.90625 C155.5611644 134.66796509 155.55592255 135.42968018 155.55052185 136.21447754 C155.54411154 137.82152083 155.54542586 139.42861109 155.55395508 141.03564453 C155.56247247 143.49206102 155.53368236 145.94615647 155.50195312 148.40234375 C155.5003411 149.96614514 155.50091866 151.52995063 155.50390625 153.09375 C155.48705528 154.19233337 155.48705528 154.19233337 155.46986389 155.31311035 C155.51584455 158.68295228 155.7649802 160.6683319 157.73413086 163.44726562 C160.25038276 165.17158004 161.73040645 165.57237685 164.75 165.75 C165.54921875 165.80671875 166.3484375 165.8634375 167.171875 165.921875 C167.77515625 165.94765625 168.3784375 165.9734375 169 166 C169.12394421 170.60805521 169.21449675 175.21513281 169.2746582 179.82446289 C169.29974547 181.39104114 169.33382415 182.95750299 169.37719727 184.52368164 C169.43811226 186.78040309 169.46626499 189.03557294 169.48828125 191.29296875 C169.51408768 191.98899704 169.5398941 192.68502533 169.56648254 193.40214539 C169.56871464 197.30483776 169.14907709 198.82446255 166.58740234 201.84082031 C165.73355957 202.55334961 164.8797168 203.26587891 164 204 C162.74483156 205.49944553 161.51519637 207.02064847 160.3125 208.5625 C156.47067933 213.42976905 152.52129472 218.19643076 148.5390625 222.94921875 C146.81114752 225.02537506 145.09630822 227.10676389 143.3984375 229.20703125 C142.18027344 230.71330078 142.18027344 230.71330078 140.9375 232.25 C140.20402344 233.16265625 139.47054687 234.0753125 138.71484375 235.015625 C138.14894531 235.67046875 137.58304688 236.3253125 137 237 C136.67 237 136.34 237 136 237 C135.89977539 236.44650879 135.79955078 235.89301758 135.69628906 235.32275391 C133.14036882 221.39849455 130.59093355 209.54811419 122 198 C121.54882812 197.38253906 121.09765625 196.76507813 120.6328125 196.12890625 C113.69805265 187.33312327 103.3204702 180.96006167 92.1875 179.5 C79.52452407 180.39175887 71.32585512 186.02429296 63 195 C62.17371094 195.87011719 61.34742188 196.74023438 60.49609375 197.63671875 C54.25496749 204.70154695 50.53698233 212.36475158 47 221 C46.66097656 221.825 46.32195313 222.65 45.97265625 223.5 C42.93074842 231.73282516 42.08196057 240.44026855 41.71484375 249.1484375 C41.65756104 250.25251953 41.60027832 251.35660156 41.54125977 252.49414062 C41.43215209 254.71282351 41.35475036 256.93333932 41.31225586 259.15429688 C40.91107853 266.86933751 40.91107853 266.86933751 38.28808594 270.12451172 C36.25998656 271.86633015 34.16173232 273.42940321 32 275 C24.67553863 283.0430003 20.1122414 292.17163409 15.84204102 302.06982422 C15.08153064 303.81311068 14.26464145 305.53153622 13.44140625 307.24609375 C11.26869087 312.35371538 10.37935394 317.82870594 9.3125 323.25 C9.08755859 324.31863281 8.86261719 325.38726562 8.63085938 326.48828125 C7.24314013 333.43109546 6.6802826 339.93161857 7 347 C7.03826904 347.90427734 7.07653809 348.80855469 7.1159668 349.74023438 C8.7256719 380.30575715 19.18380577 405.23673286 41.47265625 426.515625 C42.30667969 427.33546875 43.14070313 428.1553125 44 429 C44 429.33 44 429.66 44 430 C29.48 430 14.96 430 0 430 C0 288.1 0 146.2 0 0 Z " fill="#30B8AD" transform="translate(0,0)"/>
<path d="M0 0 C5.96952022 4.8264206 10.95732992 10.22401524 16 16 C16.56332031 16.63679688 17.12664062 17.27359375 17.70703125 17.9296875 C20.42811484 21.01490636 23.1135318 24.12975205 25.78515625 27.2578125 C26.81507479 28.46356676 27.84502353 29.66929523 28.875 30.875 C29.65447998 31.7877771 29.65447998 31.7877771 30.44970703 32.71899414 C33.47892533 36.25623858 36.55148583 39.74392577 39.6875 43.1875 C42.71712868 46.52227114 45.60608092 49.93287639 48.4375 53.4375 C51.51336588 57.24087503 54.68753166 60.90082652 58 64.5 C62.11057783 68.96636201 65.96434593 73.58383305 69.77734375 78.3046875 C72.71140185 81.86268415 75.79261855 85.27202367 78.89453125 88.68359375 C84.45281825 94.79874068 89.80298199 101.09575348 95.17504883 107.37402344 C99.47383836 112.39491412 103.80028047 117.39132983 108.13427734 122.38183594 C111.85979629 126.67493618 115.55944789 130.98933244 119.25 135.3125 C123.44163314 140.22123116 127.70440118 145.05386266 132.0625 149.81640625 C147.64489494 167.37801668 138 196.52189971 138 220 C54.51 220 -28.98 220 -115 220 C-115.33 197.56 -115.66 175.12 -116 152 C-117.65 151.34 -119.3 150.68 -121 150 C-117.89842345 144.89374592 -114.52971642 140.35924523 -110.4375 136 C-105.59327767 130.80043801 -101.31374998 125.29576955 -97.0378418 119.62451172 C-91.21972601 111.92213432 -85.12737531 104.45705744 -79 97 C-77.49972949 95.16688802 -75.99970193 93.33357717 -74.5 91.5 C-73.79617187 90.64019531 -73.09234375 89.78039062 -72.3671875 88.89453125 C-64.79499729 79.63546698 -57.24760542 70.36396353 -49.88330078 60.93823242 C-46.41850481 56.51071181 -42.86722829 52.16003293 -39.29296875 47.8203125 C-36.75836462 44.7027926 -34.28314147 41.54320817 -31.8125 38.375 C-25.8848658 30.78437616 -19.75164081 23.36826384 -13.60986328 15.95068359 C-10.64051939 12.352707 -7.70490535 8.72728271 -4.76953125 5.1015625 C-3.25236764 3.29972139 -1.69808315 1.62973925 0 0 Z " fill="#EEAC0F" transform="translate(173,210)"/>
<path d="M0 0 C0.90611401 -0.00224729 1.81222801 -0.00449459 2.74580002 -0.00680998 C4.2516189 -0.00286946 4.2516189 -0.00286946 5.78785837 0.00115067 C6.8521531 -0.00000318 7.91644784 -0.00115702 9.01299393 -0.00234583 C12.62141725 -0.00501751 16.22979699 -0.0004858 19.83821809 0.00394398 C22.43444374 0.00350839 25.03066934 0.00263371 27.62689471 0.00135481 C33.29326093 -0.00072354 38.95961668 0.00093269 44.62598169 0.00499302 C53.05173404 0.01101393 61.47747976 0.01133014 69.90323387 0.01045103 C84.07486865 0.00913531 98.24649877 0.01248544 112.41813219 0.01846844 C126.45564615 0.02437966 140.49315818 0.02823321 154.53067338 0.02932125 C155.40254803 0.02938999 156.27442268 0.02945873 157.17271776 0.02952956 C161.6002881 0.02986787 166.02785843 0.03016926 170.45542876 0.03045643 C201.83932332 0.03255845 233.22321534 0.03930027 264.60710847 0.04875904 C295.10157448 0.05793916 325.5960398 0.06502489 356.09050691 0.06926686 C357.03000503 0.06939838 357.96950314 0.06952991 358.9374709 0.06966542 C368.37205021 0.07098391 377.80662952 0.07225973 387.24120884 0.07350428 C406.46159461 0.07604069 425.68198034 0.07886194 444.90236604 0.08185536 C445.78614399 0.08199265 446.66992195 0.08212994 447.58048105 0.08227139 C506.62646735 0.09147651 565.672452 0.10755009 624.7184366 0.1241985 C624.7184366 18.9341985 624.7184366 37.7441985 624.7184366 57.1241985 C416.4884366 57.1241985 208.2584366 57.1241985 -6.2815634 57.1241985 C-6.2815634 38.6441985 -6.2815634 20.1641985 -6.2815634 1.1241985 C-3.94724597 -0.04296022 -2.60025723 -0.00051695 0 0 Z " fill="#EEAD0F" transform="translate(329.28156340122223,372.8758015036583)"/>
<path d="M0 0 C1.06191559 -0.00921478 2.12383118 -0.01842957 3.21792603 -0.02792358 C4.42282684 -0.04698761 5.62772766 -0.06605164 6.86914062 -0.08569336 C8.17227203 -0.08387054 9.47540344 -0.08204773 10.81802368 -0.08016968 C12.16939826 -0.08794546 13.52076797 -0.09661519 14.87213135 -0.10614014 C17.70516801 -0.12106363 20.53770626 -0.12048466 23.37075806 -0.10995483 C26.99517715 -0.09837684 30.61754816 -0.13219035 34.24162865 -0.17864418 C37.03334407 -0.20816714 39.82456924 -0.20985609 42.61641312 -0.20362473 C44.60007987 -0.20514633 46.5836707 -0.23286304 48.56713867 -0.26098633 C57.35051228 -0.1706469 57.35051228 -0.1706469 60.26150513 1.83071899 C61.61831665 3.43301392 61.61831665 3.43301392 63.35708618 6.52139282 C63.86755493 7.22779907 64.37802368 7.93420532 64.90396118 8.66201782 C68.9831596 15.81385921 69.04915428 22.80365336 69.21646118 30.83779907 C68.9316459 34.3224916 68.9316459 34.3224916 70.35708618 35.52139282 C73.00387704 35.9751284 74.69210852 35.9728605 76.95083618 34.43936157 C78.4479969 33.16604106 79.90426252 31.8450766 81.35708618 30.52139282 C85.70631247 28.34677968 90.93923108 29.16167476 95.41958618 30.64639282 C100.9059539 32.91885282 105.08581597 36.6144875 108.35708618 41.52139282 C109.03571673 43.51736502 109.70350537 45.51707833 110.35708618 47.52139282 C111.39686803 48.7701778 111.39686803 48.7701778 113.66958618 48.77139282 C116.84299831 48.47619169 117.95007767 47.52723325 120.35708618 45.52139282 C124.52985269 44.13047065 128.0133234 43.58423455 132.35708618 44.52139282 C138.41702763 48.2424095 143.43053775 53.59278189 145.35708618 60.52139282 C146.79203798 69.05614343 147.31820978 77.07970742 142.35708618 84.52139282 C140.50568187 84.89398831 140.50568187 84.89398831 138.20664787 84.89053631 C136.89440139 84.89949603 136.89440139 84.89949603 135.55564487 84.90863675 C134.58873348 84.89989822 133.62182209 84.8911597 132.62561035 84.88215637 C131.60301341 84.88471965 130.58041647 84.88728292 129.52683175 84.88992387 C126.07800291 84.89489083 122.62960559 84.87832073 119.18081665 84.86196899 C116.71749888 84.86112335 114.25418036 84.86159663 111.79086304 84.86329651 C106.47606668 84.8639811 101.16140631 84.8554364 95.84664536 84.83858299 C88.16235853 84.8142315 80.47812517 84.80639168 72.79380395 84.80261902 C60.32740033 84.79604847 47.86105551 84.77607098 35.39468384 84.74771118 C23.28270767 84.7201862 11.17074746 84.69894499 -0.94125366 84.68618774 C-2.06058883 84.68500549 -2.06058883 84.68500549 -3.20253684 84.68379935 C-6.94601328 84.67988432 -10.68948984 84.67609317 -14.43296647 84.67236364 C-45.50299168 84.64124894 -76.57294383 84.58817422 -107.64291382 84.52139282 C-109.66297648 76.8386482 -109.47112353 69.59836879 -105.84213257 62.45498657 C-102.61628576 57.25370263 -97.35081379 52.47342119 -91.33041382 50.92764282 C-88.40823397 50.48591796 -85.59813533 50.3166258 -82.64291382 50.27139282 C-81.63228882 50.24561157 -80.62166382 50.21983032 -79.58041382 50.19326782 C-75.92564573 50.60151319 -73.26083444 51.9034722 -70.64291382 54.52139282 C-67.14291382 54.68805949 -67.14291382 54.68805949 -63.64291382 54.52139282 C-62.0134444 52.8919234 -62.16647575 50.82325878 -61.83041382 48.58389282 C-59.85014862 37.63585521 -55.94905112 30.12560303 -47.64291382 22.52139282 C-42.80667893 19.36902919 -37.18974276 19.95650104 -31.64291382 20.52139282 C-27.39642651 21.68160403 -23.16393743 22.93652378 -20.06088257 26.16983032 C-19.35898804 26.83885376 -19.35898804 26.83885376 -18.64291382 27.52139282 C-15.52297776 27.44596941 -15.52297776 27.44596941 -12.64291382 26.52139282 C-11.37548908 23.98654335 -11.21106112 21.70677942 -10.83041382 18.89639282 C-9.96249031 13.49454056 -8.58709177 9.13149353 -5.64291382 4.52139282 C-5.24615448 3.83727325 -4.84939514 3.15315369 -4.44061279 2.44830322 C-2.64291382 0.52139282 -2.64291382 0.52139282 0 0 Z " fill="#F4D998" transform="translate(763.6429138183594,-0.521392822265625)"/>
<path d="M0 0 C11.35479464 8.94347533 19.8861053 23.70991286 23.11328125 37.765625 C25.30461984 57.56071692 21.79287001 74.32718982 9.66015625 90.3203125 C-0.71300186 101.69517042 -16.06079634 107.29002337 -31.11328125 108.14453125 C-47.64365339 108.35555728 -61.26841459 103.74519219 -73.35546875 92.16015625 C-84.80897708 80.50138792 -91.86439215 67.60185417 -91.97265625 50.94140625 C-91.67917524 33.58435942 -85.88962432 18.55343397 -73.75 6.01953125 C-53.14367181 -13.31480137 -23.40359461 -15.91169501 0 0 Z " fill="#022A39" transform="translate(208.53515625,284.05859375)"/>
<path d="M0 0 C3.55458297 2.22629144 6.40360056 4.65239793 9.1875 7.8125 C9.65671875 8.27914062 10.1259375 8.74578125 10.609375 9.2265625 C20.19282884 19.25460956 22.39281924 31.57255094 23.1875 44.8125 C23.3009375 46.00488281 23.414375 47.19726562 23.53125 48.42578125 C23.91669892 54.72374127 23.82503189 58.8915595 19.8125 63.9375 C18.28915481 65.57968773 16.74604418 67.2036802 15.1875 68.8125 C13.46331649 70.84344008 11.75617024 72.88174802 10.0625 74.9375 C8.79986328 76.44183594 8.79986328 76.44183594 7.51171875 77.9765625 C5.08918755 80.93245771 2.81761824 83.95655705 0.63671875 87.09375 C-1.26006689 89.34330709 -3.50364891 90.99892075 -5.8125 92.8125 C-5.86784912 91.73242676 -5.92319824 90.65235352 -5.98022461 89.53955078 C-6.18635916 85.53995969 -6.39831983 81.54069514 -6.61206055 77.54150391 C-6.70382606 75.80916585 -6.79400218 74.07674285 -6.88256836 72.34423828 C-7.00999861 69.85685674 -7.14310438 67.36983469 -7.27734375 64.8828125 C-7.31593002 64.10567902 -7.3545163 63.32854553 -7.39427185 62.52786255 C-7.54430656 58.53990539 -7.54430656 58.53990539 -8.8125 54.8125 C-11.72884129 54.5622843 -11.72884129 54.5622843 -14.8125 54.8125 C-17.00592149 58.10263224 -17.03471024 58.87646987 -16.89672852 62.66015625 C-16.85292809 64.13814697 -16.85292809 64.13814697 -16.8082428 65.64599609 C-16.76968674 66.71156738 -16.73113068 67.77713867 -16.69140625 68.875 C-16.64171893 71.13927652 -16.59426547 73.40360296 -16.54882812 75.66796875 C-16.46880258 79.23265403 -16.37565859 82.79475607 -16.2434082 86.35791016 C-15.45000554 108.73841206 -15.45000554 108.73841206 -21.08984375 115.625 C-22.63214695 117.05601929 -24.20540609 118.45464709 -25.8125 119.8125 C-26.52865479 120.72386719 -27.24480957 121.63523437 -27.98266602 122.57421875 C-28.88843384 123.68216797 -28.88843384 123.68216797 -29.8125 124.8125 C-30.4725 124.8125 -31.1325 124.8125 -31.8125 124.8125 C-32.63261312 123.25398245 -33.44326213 121.69048284 -34.25 120.125 C-34.70246094 119.25488281 -35.15492187 118.38476562 -35.62109375 117.48828125 C-36.77241928 114.90251736 -37.37570753 112.59893472 -37.8125 109.8125 C-42.82785052 110.14210216 -42.82785052 110.14210216 -46.8125 112.8125 C-46.82801954 120.88266191 -42.65319559 126.72927292 -37.8125 132.8125 C-41.34522556 140.3826262 -47.39908133 146.53424547 -52.8125 152.8125 C-54.3464994 154.60204644 -55.87945521 156.39247731 -57.41162109 158.18359375 C-58.65640697 159.630999 -59.91512602 161.06639537 -61.17578125 162.5 C-64.92230884 166.80302331 -64.92230884 166.80302331 -65.9375 172.25 C-64.95902679 175.10400508 -64.95902679 175.10400508 -61.8125 176.8125 C-59.8325 177.1425 -57.8525 177.4725 -55.8125 177.8125 C-55.8125 192.0025 -55.8125 206.1925 -55.8125 220.8125 C-72.545899 206.46958657 -80.65875196 189.51542167 -83.8125 167.8125 C-85.32409093 139.54345941 -81.51235304 112.51607309 -62.90625 90.1171875 C-59.81895967 86.71886419 -56.56684888 83.47403371 -52.8125 80.8125 C-52.1525 80.8125 -51.4925 80.8125 -50.8125 80.8125 C-50.79268066 79.8652002 -50.77286133 78.91790039 -50.75244141 77.94189453 C-50.67371768 74.38192949 -50.58700803 70.82233574 -50.49511719 67.26269531 C-50.45715122 65.73054323 -50.4222459 64.19831179 -50.390625 62.66601562 C-49.96087327 42.09165159 -45.40966826 23.12935553 -30.5 7.875 C-21.70169815 -0.44252032 -11.70182137 -6.10277108 0 0 Z " fill="#E44A10" transform="translate(101.8125,193.1875)"/>
<path d="M0 0 C15.18 0 30.36 0 46 0 C46 10 46 10 43.98828125 12.5234375 C43.10527344 13.13445313 42.22226562 13.74546875 41.3125 14.375 C34.76372538 19.74573726 31.60148295 25.01467724 30.74121094 33.57519531 C30.48721953 37.440918 30.3257739 41.2968301 30.27514648 45.1706543 C30.15666014 54.02574292 28.35709528 60.06705675 23.25 67.25 C14.3574542 79.12393038 14.3574542 79.12393038 11 93 C13.42431419 97.72235898 13.42431419 97.72235898 18 100 C19.39998741 100.05559079 20.80229743 100.06230764 22.203125 100.03515625 C35.48656963 100.04437081 35.48656963 100.04437081 39.80859375 102.7734375 C44 107.60096154 44 107.60096154 44 111 C44.84884766 111.41572266 44.84884766 111.41572266 45.71484375 111.83984375 C48.82693388 113.41982797 51.84496021 115.15472444 54.87890625 116.87890625 C60.83555887 120.02726592 67.21003139 119.7466112 73.5625 117.875 C79.87480402 115.54243231 85.28101747 111.64080311 89 106 C89.71162443 104.35202764 90.39031953 102.68834592 91 101 C91.99 100.96261719 92.98 100.92523438 94 100.88671875 C104.32782978 100.41777634 104.32782978 100.41777634 114 97 C116.20304849 93.69542727 116.41463279 92.82694858 116 89 C114.92361847 86.16716552 114.92361847 86.16716552 113.375 83.3125 C112.83101562 82.26578125 112.28703125 81.2190625 111.7265625 80.140625 C109.69216654 76.44004954 107.54623525 72.82748665 105.296875 69.25390625 C102.60878178 64.58212979 101.73003307 60.72534757 101.5078125 55.3359375 C101.44207031 54.04816406 101.37632812 52.76039062 101.30859375 51.43359375 C101.18371227 48.75155368 101.07257832 46.06957235 100.96484375 43.38671875 C100.43223475 33.28724625 98.93922317 22.85227885 92 15 C88.7715485 12.79507966 85.44135244 10.85202555 82 9 C82.875 2.25 82.875 2.25 84 0 C98.52 0 113.04 0 128 0 C130.29756366 19.5292911 130.29756366 19.5292911 130.22705078 29.39477539 C130.22729185 30.52681365 130.22753292 31.65885191 130.2277813 32.82519436 C130.22631268 36.41610081 130.211195 40.00678796 130.1953125 43.59765625 C130.19236443 45.84403382 130.19032871 48.09041277 130.18920898 50.33679199 C130.17881014 58.57871589 130.15088799 66.8206102 130.125 75.0625 C130.08375 93.521875 130.0425 111.98125 130 131 C87.1 131 44.2 131 0 131 C0 87.77 0 44.54 0 0 Z " fill="#2EBAAF" transform="translate(441,45)"/>
<path d="M0 0 C3.44442982 1.7951262 5.60947334 3.97369497 8 7 C8.7425 7.804375 9.485 8.60875 10.25 9.4375 C17.2510649 19.68905932 19.23527766 30.69474419 19.69140625 42.96875 C19.99012892 45.90303848 20.2856951 47.61778409 22 50 C23.8253125 50.61875 23.8253125 50.61875 25.6875 51.25 C34.09215857 54.12247825 37.86643168 62.0654496 41.640625 69.58203125 C45.41484002 79.07179604 46.41058674 87.49987236 46.1875 97.6875 C46.16719727 99.47317383 46.16719727 99.47317383 46.14648438 101.29492188 C46.11151828 104.19710738 46.06244696 107.09829809 46 110 C28.64996893 110.18768062 11.33641816 109.60738849 -6 109 C-6.30665724 103.71688754 -6.30665724 103.71688754 -6 101 C-4.49609375 99.3984375 -4.49609375 99.3984375 -2.4375 98.375 C3.66353726 94.4311152 6.74117049 87.73820329 9 81 C8.79137517 77.67823984 8.79137517 77.67823984 8 75 C6.02 75 4.04 75 2 75 C1.60167969 75.78246094 1.20335937 76.56492187 0.79296875 77.37109375 C0.26316406 78.38300781 -0.26664062 79.39492187 -0.8125 80.4375 C-1.33457031 81.44683594 -1.85664063 82.45617187 -2.39453125 83.49609375 C-4 86 -4 86 -7 87 C-7.02061493 86.43037033 -7.04122986 85.86074066 -7.06246948 85.27384949 C-7.27859833 79.35259063 -7.50779266 73.43194064 -7.74462891 67.51147461 C-7.83132723 65.30099205 -7.91467754 63.09037555 -7.99462891 60.87963867 C-8.11003652 57.70450449 -8.23742176 54.53004447 -8.3671875 51.35546875 C-8.40061249 50.36475876 -8.43403748 49.37404877 -8.46847534 48.35331726 C-8.50836578 47.43258926 -8.54825623 46.51186127 -8.58935547 45.56323242 C-8.62044403 44.7527092 -8.65153259 43.94218597 -8.68356323 43.10710144 C-8.89225798 40.70121763 -8.89225798 40.70121763 -11 38 C-13.31 38 -15.62 38 -18 38 C-18 53.84 -18 69.68 -18 86 C-18.66 86 -19.32 86 -20 86 C-21.47265625 83.8828125 -21.47265625 83.8828125 -23.0625 81.125 C-23.58972656 80.22007812 -24.11695313 79.31515625 -24.66015625 78.3828125 C-25.47185168 76.93927252 -26.25937093 75.48125815 -27 74 C-30.04386724 73.91773332 -32.07175348 74.02391783 -35 75 C-33.53232838 84.21090466 -28.99124177 92.01278998 -21.734375 97.79296875 C-20.00910375 99.05538626 -20.00910375 99.05538626 -18 100 C-18 102.97 -18 105.94 -18 109 C-22.42504534 109.0251577 -26.85005022 109.04307066 -31.27514648 109.05493164 C-32.77320076 109.05988838 -34.27125039 109.06665574 -35.76928711 109.07543945 C-45.89676176 109.13323303 -55.90263673 108.81950418 -66 108 C-66.587404 91.51428092 -66.55754183 76.22735055 -57 62 C-56.443125 61.113125 -55.88625 60.22625 -55.3125 59.3125 C-52.2855009 56.2855009 -48.87385147 54.40144906 -45.14453125 52.33203125 C-42.87158858 51.17969977 -42.87158858 51.17969977 -42 49 C-41.88710092 46.99499597 -41.77990828 44.9894004 -41.71044922 42.98242188 C-41.21414259 28.92701828 -39.06295807 18.41145528 -29.01171875 7.92578125 C-20.50112862 0.04315699 -11.19565257 -1.60916107 0 0 Z " fill="#E64A11" transform="translate(369,93)"/>
<path d="M0 0 C13.79224744 7.23252 20.48250531 23.2978353 25.1015625 37.3515625 C28.25871911 49.24253554 27.43982011 61.29334759 25.65234375 73.34375 C25.32015862 77.25749486 25.28346973 79.92241293 27.50390625 83.26171875 C28.16261719 84.02097656 28.82132813 84.78023438 29.5 85.5625 C44.23271953 102.69638507 43.02002394 120.68739109 42.54931641 142.0802002 C42.45181958 146.98762069 42.4161381 151.89585983 42.36968994 156.80397797 C42.29293744 164.20430811 42.13937836 171.59939633 42 179 C28.8 179 15.6 179 2 179 C2 160 2 160 6.0625 155.875 C6.88234375 155.40191406 7.7021875 154.92882812 8.546875 154.44140625 C15.80217211 150.17834155 18.91235459 142.57937708 21.37109375 134.89453125 C22.17459502 131.19642912 22.94362255 127.52028078 20.875 124.1875 C18.33323785 122.57771731 15.9601892 122.32890991 13 122 C12.92523437 122.59425781 12.85046875 123.18851562 12.7734375 123.80078125 C11.59076858 131.25623336 9.06784843 139.8132825 2.89794922 144.64672852 C2.27162598 145.09330811 1.64530273 145.5398877 1 146 C0.97113463 141.68751391 0.95324745 137.37505238 0.9375 133.0625 C0.92912109 131.83080078 0.92074219 130.59910156 0.91210938 129.33007812 C0.90888672 128.16025391 0.90566406 126.99042969 0.90234375 125.78515625 C0.89710693 124.70113525 0.89187012 123.61711426 0.88647461 122.50024414 C1 120 1 120 2 119 C2.16666667 116 2.16666667 116 2 113 C1.67 112.67 1.34 112.34 1 112 C0.88754379 110.36441235 0.84323278 108.72407965 0.82641602 107.0847168 C0.81292618 106.03660324 0.79943634 104.98848969 0.78553772 103.90861511 C0.77509933 102.76701431 0.76466095 101.62541351 0.75390625 100.44921875 C0.72096512 98.05533492 0.68775352 95.6614548 0.65429688 93.26757812 C0.6068666 89.47536811 0.5624552 85.68317286 0.52319336 81.89086914 C0.48351952 78.24348904 0.43195704 74.59642533 0.37890625 70.94921875 C0.3704921 69.81369064 0.36207794 68.67816254 0.35340881 67.50822449 C0.32844582 65.92186943 0.32844582 65.92186943 0.30297852 64.3034668 C0.29267105 63.37382614 0.28236359 62.44418549 0.27174377 61.4863739 C-0.01704109 58.84407913 -0.52690608 57.20670635 -2 55 C-4.55519921 54.18828772 -4.55519921 54.18828772 -7 54 C-9.47113581 57.70670372 -9.34788589 60.65192181 -9.4140625 64.94921875 C-9.43342865 65.72183548 -9.4527948 66.49445221 -9.4727478 67.29048157 C-9.53248479 69.7560424 -9.57890486 72.22165007 -9.625 74.6875 C-9.66318525 76.3600463 -9.70223731 78.03257305 -9.7421875 79.70507812 C-9.83818133 83.80322647 -9.92223377 87.90146688 -10 92 C-11.485 91.01 -11.485 91.01 -13 90 C-13 89.34 -13 88.68 -13 88 C-13.54914062 87.80535156 -14.09828125 87.61070312 -14.6640625 87.41015625 C-18.0013383 85.39551317 -20.05024014 82.49520498 -22.375 79.4375 C-23.05949219 78.56254883 -23.05949219 78.56254883 -23.7578125 77.66992188 C-24.7024072 76.44805148 -25.62960745 75.21257518 -26.54077148 73.96557617 C-27.53689779 72.62379721 -28.58130372 71.31688073 -29.66430664 70.04418945 C-35.0222863 63.23036677 -34.86814718 56.73569972 -34.6875 48.3125 C-34.70232422 47.03955078 -34.71714844 45.76660156 -34.73242188 44.45507812 C-34.60580511 29.80477336 -30.00008849 17.66352478 -20 7 C-14.11980242 2.14930074 -7.89212661 -1.60867389 0 0 Z " fill="#E44910" transform="translate(964,251)"/>
<path d="M0 0 C1.28777344 0.01160156 2.57554687 0.02320313 3.90234375 0.03515625 C5.83787109 0.04869141 5.83787109 0.04869141 7.8125 0.0625 C8.81152344 0.07410156 9.81054688 0.08570313 10.83984375 0.09765625 C10.42992187 0.8246875 10.02 1.55171875 9.59765625 2.30078125 C6.14209519 8.74895739 4.10515426 14.1977923 3.45703125 21.50390625 C2.68250683 24.75886964 1.4376235 26.04269615 -1.16015625 28.09765625 C-5.67101562 28.09765625 -8.53116318 25.54167199 -12.16015625 23.09765625 C-17.83240762 20.39658417 -24.00579069 20.42796633 -30.16015625 21.09765625 C-37.90996343 24.68552995 -42.4599753 31.59344971 -45.35546875 39.39453125 C-46.47812534 43.16578544 -47.12598383 46.95421353 -47.66796875 50.84765625 C-48.16015625 53.09765625 -48.16015625 53.09765625 -50.16015625 55.09765625 C-56.46264735 55.67060999 -56.46264735 55.67060999 -58.91015625 53.66015625 C-59.32265625 53.14453125 -59.73515625 52.62890625 -60.16015625 52.09765625 C-67.21225654 49.74695615 -75.37955391 50.45412376 -82.26171875 53.125 C-88.47446265 56.30807249 -92.01877948 62.67352594 -94.16015625 69.09765625 C-94.16015625 74.04765625 -94.16015625 78.99765625 -94.16015625 84.09765625 C-11.66015625 83.76765625 70.83984375 83.43765625 155.83984375 83.09765625 C159.03695929 76.70342517 159.70056829 68.83533967 158.21484375 61.78515625 C155.63751184 54.87322067 152.21029565 49.01793435 145.83984375 45.09765625 C140.15303777 44.03393715 135.7654903 45.01912715 130.83984375 48.09765625 C130.50984375 48.42765625 130.17984375 48.75765625 129.83984375 49.09765625 C127.11790852 49.38417575 125.4675106 49.51610082 123.15234375 47.97265625 C121.83984375 46.09765625 121.83984375 46.09765625 120.96484375 43.28515625 C119.16877065 38.19628248 116.4084074 35.02598984 111.77734375 32.28515625 C106.82858592 30.28459457 102.21981228 29.32169925 96.83984375 30.09765625 C93.6963994 31.84401422 91.37121649 33.56628351 88.83984375 36.09765625 C86.33984375 36.34765625 86.33984375 36.34765625 83.83984375 36.09765625 C80.84618234 33.10399484 81.6297292 29.73480647 81.58984375 25.72265625 C81.2753447 15.40996523 78.02425909 8.34354337 71.83984375 0.09765625 C76.78984375 0.09765625 81.73984375 0.09765625 86.83984375 0.09765625 C90.20823752 6.31622935 92.44740187 11.03370233 92.83984375 18.09765625 C93.82984375 17.60265625 93.82984375 17.60265625 94.83984375 17.09765625 C107.55769696 16.08830282 117.90108699 21.99979414 127.90234375 29.34765625 C129.83984375 31.09765625 129.83984375 31.09765625 130.83984375 33.09765625 C131.64421875 32.93265625 132.44859375 32.76765625 133.27734375 32.59765625 C141.17559004 31.48913045 147.05705858 31.51894828 153.83984375 36.09765625 C158.28504601 39.492067 161.38671414 42.82259567 164.58984375 47.47265625 C165.3478125 48.55289063 166.10578125 49.633125 166.88671875 50.74609375 C170.40818446 56.78892891 171.23040722 62.50284211 171.21484375 69.34765625 C171.21323242 70.08983398 171.21162109 70.83201172 171.20996094 71.59667969 C171.0254253 79.93696668 169.01707788 88.11346068 162.83984375 94.09765625 C159.93331244 95.83406032 157.80398279 96.34867604 154.43442154 96.35492516 C153.11315211 96.36459849 153.11315211 96.36459849 151.76519036 96.37446725 C150.80177972 96.37137005 149.83836907 96.36827285 148.84576416 96.36508179 C147.81893579 96.3696129 146.79210742 96.37414401 145.73416305 96.37881243 C142.28269096 96.39150415 138.8313757 96.38983297 135.37988281 96.38818359 C132.90954382 96.39416591 130.43920671 96.40097077 127.96887207 96.40853882 C121.94817944 96.42439781 115.92754881 96.4306486 109.90684107 96.43176357 C105.01188079 96.43271399 100.11693343 96.43682394 95.22197723 96.44316483 C81.34107142 96.46077977 67.46019653 96.47000349 53.57927945 96.46850388 C52.83091997 96.46842397 52.08256048 96.46834405 51.31152344 96.46826172 C50.18761179 96.46813908 50.18761179 96.46813908 49.04099485 96.46801396 C36.90246363 96.46720135 24.76405658 96.48633197 12.62556127 96.51453845 C0.15909035 96.54327818 -12.30732004 96.5570781 -24.77382493 96.5553509 C-31.77167137 96.55468729 -38.7693877 96.56016641 -45.76720428 96.581707 C-52.34997026 96.60184014 -58.93250854 96.6012339 -65.51530457 96.58667374 C-67.93078767 96.58458078 -70.34628783 96.5893154 -72.76174164 96.60139465 C-76.06086543 96.61682361 -79.35903885 96.60755344 -82.65814209 96.59213257 C-84.08987373 96.60756326 -84.08987373 96.60756326 -85.55052924 96.62330568 C-91.51792474 96.56172477 -96.22424931 95.60586573 -101.16015625 92.09765625 C-107.13821066 84.74005082 -106.68656167 77.25512411 -106.16015625 68.09765625 C-104.59795022 57.86449015 -98.73327519 49.50347429 -90.54296875 43.3515625 C-83.30008086 39.54014117 -76.70272 38.6782432 -68.59765625 38.91015625 C-67.68435547 38.92369141 -66.77105469 38.93722656 -65.83007812 38.95117188 C-63.60612366 38.9861031 -61.38347673 39.03514039 -59.16015625 39.09765625 C-58.60328125 37.97488281 -58.04640625 36.85210937 -57.47265625 35.6953125 C-46.59009428 14.17762871 -46.59009428 14.17762871 -35.16015625 9.09765625 C-25.89636283 6.62731134 -17.11176383 8.23858767 -8.16015625 11.09765625 C-7.74443359 10.03224609 -7.74443359 10.03224609 -7.3203125 8.9453125 C-6.95808594 8.02621094 -6.59585938 7.10710938 -6.22265625 6.16015625 C-5.86300781 5.24363281 -5.50335937 4.32710938 -5.1328125 3.3828125 C-3.74217064 0.11564186 -3.74217064 0.11564186 0 0 Z " fill="#022A38" transform="translate(750.16015625,-0.09765625)"/>
<path d="M0 0 C0.83708496 0.01353516 1.67416992 0.02707031 2.53662109 0.04101562 C12.61083827 0.37806393 19.29580504 3.31881539 26.64453125 10.27734375 C32.92911959 17.33046163 35.03015512 24.40733562 34.89453125 33.69140625 C34.22133141 40.70634367 30.22963063 45.6995546 25.26171875 50.46875 C19.87520032 54.6183642 13.71247712 57.51967266 7.625 60.5 C8.12002439 64.45487747 8.12002439 64.45487747 10.8125 67.25 C15.61923878 71.09539103 20.22244974 77.27959792 21 83.5 C20.87853494 88.80029367 18.6143171 93.21485508 15.625 97.5 C11.08036014 101.83307904 6.78365774 105.63188188 0.35888672 105.61352539 C-0.96225632 105.61341209 -0.96225632 105.61341209 -2.31008911 105.61329651 C-3.26221283 105.60813522 -4.21433655 105.60297394 -5.1953125 105.59765625 C-6.16910858 105.5962413 -7.14290466 105.59482635 -8.14620972 105.59336853 C-11.26417073 105.58775973 -14.3820606 105.57520573 -17.5 105.5625 C-19.61067605 105.55748613 -21.72135322 105.55292303 -23.83203125 105.54882812 C-29.01304521 105.53778745 -34.19401752 105.52104073 -39.375 105.5 C-41.63874142 100.53356861 -42.58291831 97.66829785 -41.875 92.25 C-41.73207046 87.80897506 -41.95866662 86.05086288 -44.671875 82.4609375 C-46.59468855 80.52762215 -48.61927847 78.71760138 -50.66015625 76.91015625 C-54.83046884 73.20787874 -56.95778466 70.40823637 -57.7734375 64.72265625 C-58.1515695 57.58316394 -57.09608809 52.00611891 -52.375 46.5 C-46.78692923 41.80117015 -40.77886643 38.86587266 -33.625 37.4375 C-30.71738786 37.01664392 -30.71738786 37.01664392 -28.375 35.5 C-28.4078487 33.52011922 -28.4770887 31.54081035 -28.5625 29.5625 C-28.60448316 19.96934797 -25.74586055 13.50075361 -19.546875 6.2890625 C-13.47179379 1.28476899 -7.77106604 -0.18163282 0 0 Z " fill="#F6D68C" transform="translate(237.375,15.5)"/>
<path d="M0 0 C42.24 0 84.48 0 128 0 C128 14.85 128 29.7 128 45 C85.76 45 43.52 45 0 45 C0 30.15 0 15.3 0 0 Z " fill="#E84A11" transform="translate(442,187)"/>
<path d="M0 0 C1.09699219 0.01804688 2.19398438 0.03609375 3.32421875 0.0546875 C10.25211809 0.32826308 15.92460726 0.93710822 21 6 C26.21507215 13.27365326 26.05127331 21.28445722 26.13696289 29.89526367 C26.30270525 40.69253743 26.82823941 48.85421406 33 58 C34.11635467 59.88720754 35.20084029 61.79036084 36.28100586 63.69848633 C36.99642817 64.95833847 37.72213619 66.21241915 38.45922852 67.4597168 C41 71.78268188 41 71.78268188 41 74 C13.28 73.67 -14.44 73.34 -43 73 C-39.23775882 65.47551765 -35.61224436 58.43392859 -31.08203125 51.44921875 C-25.92210358 43.18262182 -25.67472877 35.04740512 -25.52148438 25.50976562 C-25.2913205 18.21750029 -24.20111209 10.67366174 -19.125 5.0625 C-18.65320313 4.51722656 -18.18140625 3.97195312 -17.6953125 3.41015625 C-12.41568929 -0.98141974 -6.45642712 -0.24363876 0 0 Z " fill="#E64B11" transform="translate(506,62)"/>
<path d="M0 0 C7.67841194 5.69861235 12.72112576 14.49844827 15.25 23.625 C15.59146419 26.22913352 15.80622925 28.77351538 15.87890625 31.3984375 C16.3532562 34.24453719 17.21288667 35.59244397 19.25 37.625 C21.35190682 38.17254039 21.35190682 38.17254039 23.625 38.125 C27.98227842 38.42965524 30.1715001 39.35992434 33.25 42.625 C35.3355699 45.70369842 35.31615749 47.97430943 35.25 51.625 C30.6967813 51.64989563 26.14360307 51.66795187 21.59033203 51.67993164 C20.04442656 51.68493092 18.49852575 51.69173253 16.95263672 51.70043945 C14.71841272 51.71269956 12.48425174 51.71827249 10.25 51.72265625 C9.56945557 51.72781754 8.88891113 51.73297882 8.18774414 51.73829651 C3.45012279 51.73883862 -1.06976335 51.28544355 -5.75 50.625 C-5.77688151 48.97925434 -5.79634123 47.33338587 -5.8125 45.6875 C-5.82410156 44.77097656 -5.83570313 43.85445312 -5.84765625 42.91015625 C-5.75 40.625 -5.75 40.625 -4.75 39.625 C-4.81440919 37.55022297 -4.81440919 37.55022297 -5.125 35.1875 C-5.21523438 34.38441406 -5.30546875 33.58132812 -5.3984375 32.75390625 C-5.64989241 30.57895868 -5.64989241 30.57895868 -6.75 28.625 C-9.06 28.625 -11.37 28.625 -13.75 28.625 C-15.2549775 36.14988748 -14.75 43.95109038 -14.75 51.625 C-32.9 51.295 -51.05 50.965 -69.75 50.625 C-68.61907021 41.57756167 -68.61907021 41.57756167 -66.875 38.3125 C-66.54757812 37.67699219 -66.22015625 37.04148438 -65.8828125 36.38671875 C-64.63499691 34.44615037 -63.58866882 33.03232234 -61.75 31.625 C-59.59375 31.5078125 -59.59375 31.5078125 -57.25 31.75 C-54.89299826 31.86259712 -54.89299826 31.86259712 -52.75 31.625 C-49.84079808 28.80671064 -49.65537468 26.17098967 -49.375 22.3125 C-48.71781921 14.96181116 -44.76365517 10.35522114 -39.5625 5.375 C-29.21494379 -3.20013631 -12.39988538 -6.69441665 0 0 Z " fill="#E64A11" transform="translate(701.75,154.375)"/>
<path d="M0 0 C0.68491013 -0.00335861 1.36982025 -0.00671722 2.07548523 -0.01017761 C4.34021823 -0.01967819 6.60487722 -0.02163032 8.86962891 -0.02270508 C10.44520091 -0.02591846 12.02077262 -0.0292826 13.59634399 -0.03279114 C16.9000111 -0.0387803 20.20365206 -0.04063127 23.50732422 -0.04003906 C27.73635865 -0.03993749 31.96522498 -0.05358518 36.19421959 -0.07081127 C39.44905362 -0.08194158 42.70384716 -0.08395795 45.95869827 -0.08342934 C47.5175802 -0.08460807 49.07646322 -0.08902387 50.63532639 -0.0967617 C52.81820114 -0.10658176 55.0007129 -0.10367568 57.18359375 -0.09765625 C59.0453273 -0.09979378 59.0453273 -0.09979378 60.94467163 -0.10197449 C66.16062773 0.29160879 68.51463248 1.43870474 72.22119141 5.14526367 C72.22119141 15.04526367 72.22119141 24.94526367 72.22119141 35.14526367 C44.17119141 35.14526367 16.12119141 35.14526367 -12.77880859 35.14526367 C-12.77880859 5.14526367 -12.77880859 5.14526367 -9.77880859 1.14526367 C-6.32695605 -0.00535384 -3.64199446 0.01119954 0 0 Z " fill="#022A3C" transform="translate(644.77880859375,394.854736328125)"/>
<path d="M0 0 C0.6946637 -0.0049649 1.38932739 -0.00992981 2.1050415 -0.01504517 C4.40223177 -0.02964548 6.69935299 -0.03646503 8.99658203 -0.04199219 C10.59457399 -0.04774518 12.19256593 -0.05350289 13.79055786 -0.05926514 C17.14129966 -0.06976891 20.4920175 -0.07561572 23.84277344 -0.07910156 C28.13241169 -0.08458651 32.42173257 -0.10861699 36.71127129 -0.13707352 C40.01243002 -0.15571363 43.31351248 -0.16090621 46.61471939 -0.16243744 C48.19594178 -0.16546115 49.77716292 -0.17348023 51.35833359 -0.18662262 C53.57246691 -0.20371315 55.78582714 -0.20179603 58 -0.1953125 C59.25892059 -0.19895813 60.51784119 -0.20260376 61.81491089 -0.20635986 C65.39531663 0.19061687 67.2770447 1.00160871 70.12939453 3.16113281 C74.90200155 12.70634685 71.12939453 24.48925908 71.12939453 35.16113281 C43.40939453 35.16113281 15.68939453 35.16113281 -12.87060547 35.16113281 C-12.87060547 24.93113281 -12.87060547 14.70113281 -12.87060547 4.16113281 C-8.59652257 -0.11295009 -5.83205448 0.03167132 0 0 Z " fill="#012A3C" transform="translate(382.87060546875,394.8388671875)"/>
<path d="M0 0 C1.27199753 -0.00630432 2.54399506 -0.01260864 3.85453796 -0.019104 C5.24132424 -0.01552217 6.62810925 -0.0114197 8.01489258 -0.00683594 C9.4449317 -0.0081844 10.87497038 -0.01012644 12.30500793 -0.01263428 C15.30348064 -0.01558179 18.30183414 -0.01130313 21.30029297 -0.00195312 C25.12200876 0.00938968 28.94344199 0.00291269 32.76514721 -0.00909805 C35.72077001 -0.01637098 38.67632736 -0.01400309 41.63195229 -0.00884247 C43.039595 -0.00751825 44.44724386 -0.00911012 45.85487938 -0.01380157 C53.40308176 -0.033424 60.47735721 -0.00163261 67.72192383 2.25878906 C68.71192383 3.24878906 69.70192383 4.23878906 70.72192383 5.25878906 C70.72192383 15.15878906 70.72192383 25.05878906 70.72192383 35.25878906 C43.00192383 35.25878906 15.28192383 35.25878906 -13.27807617 35.25878906 C-13.27807617 7.25878906 -13.27807617 7.25878906 -10.27807617 2.25878906 C-7.00839048 -0.10237731 -3.95249784 0.0056219 0 0 Z " fill="#01293C" transform="translate(514.278076171875,394.7412109375)"/>
<path d="M0 0 C35.97 0 71.94 0 109 0 C109 7.59 109 15.18 109 23 C94.93581999 23.0225482 80.87165188 23.04091345 66.80745792 23.05181217 C60.27763767 23.0570417 53.74783037 23.06414061 47.21801758 23.07543945 C40.92218841 23.08626585 34.62637174 23.09227631 28.33053398 23.09487724 C25.92265056 23.09673194 23.51476786 23.1003534 21.10688972 23.10573006 C17.74710714 23.1129372 14.3873769 23.11399108 11.02758789 23.11352539 C10.02130341 23.11712067 9.01501892 23.12071594 7.97824097 23.12442017 C7.06813766 23.1230455 6.15803436 23.12167084 5.22035217 23.12025452 C4.42484483 23.12117631 3.62933748 23.1220981 2.80972385 23.12304783 C1 23 1 23 0 22 C0 14.74 0 7.48 0 0 Z " fill="#E94B11" transform="translate(165,132)"/>
<path d="M0 0 C2.22521235 -0.04786252 4.45047233 -0.09357895 6.67578125 -0.13671875 C7.69679932 -0.17482666 8.71781738 -0.21293457 9.76977539 -0.25219727 C14.27777905 -0.30416383 16.68949333 -0.24086089 20.53515625 2.26171875 C26.14674386 11.09649098 22.81440172 26.68863097 22.42578125 35.23828125 C-0.01421875 35.23828125 -22.45421875 35.23828125 -45.57421875 35.23828125 C-45.57421875 7.23828125 -45.57421875 7.23828125 -42.57421875 2.23828125 C-39.72669037 0.81451706 -37.22082338 1.01803582 -34.0390625 0.921875 C-33.37650955 0.90082199 -32.7139566 0.87976898 -32.03132629 0.858078 C-29.85825091 0.79122944 -27.68508389 0.73239353 -25.51171875 0.67578125 C-24.4051593 0.64650543 -24.4051593 0.64650543 -23.27624512 0.61663818 C-19.49859243 0.51835896 -15.72084414 0.42731845 -11.94287109 0.34228516 C-7.96109756 0.25144497 -3.98084185 0.12525075 0 0 Z " fill="#042B3B" transform="translate(806.57421875,394.76171875)"/>
<path d="M0 0 C1.06468002 -0.00960754 2.12936005 -0.01921509 3.2263031 -0.02911377 C4.9435836 -0.03548859 4.9435836 -0.03548859 6.69555664 -0.04199219 C7.87662491 -0.04769226 9.05769318 -0.05339233 10.27455139 -0.05926514 C12.77189235 -0.06870824 15.26924573 -0.07524638 17.76660156 -0.07910156 C21.58754119 -0.08882096 25.40794604 -0.11985735 29.22875977 -0.15136719 C31.65518886 -0.15789606 34.08162181 -0.16314699 36.50805664 -0.16699219 C38.2223008 -0.18551239 38.2223008 -0.18551239 39.97117615 -0.20440674 C41.03900833 -0.20140564 42.10684052 -0.19840454 43.20703125 -0.1953125 C44.61123573 -0.20078094 44.61123573 -0.20078094 46.04380798 -0.20635986 C49.36671927 0.25894393 51.11598433 0.96045876 53.66821289 3.16113281 C55.12956691 13.39061091 54.09839519 23.83675772 53.66821289 34.16113281 C31.55821289 34.16113281 9.44821289 34.16113281 -13.33178711 34.16113281 C-13.33178711 6.16113281 -13.33178711 6.16113281 -9.33178711 1.16113281 C-6.31372857 -0.10233999 -3.24776136 0.02370871 0 0 Z " fill="#012A3C" transform="translate(870.331787109375,395.8388671875)"/>
<path d="M0 0 C14.6662868 2.93325736 23.83193466 8.21978752 33 20 C34.77036793 22.66586722 36.3043984 25.39627035 37.75 28.25 C38.07307129 28.88655518 38.39614258 29.52311035 38.72900391 30.17895508 C41.15444064 35.41119921 41.31684583 38.85161245 42 45 C28.14 45 14.28 45 0 45 C0 30.15 0 15.3 0 0 Z " fill="#2FB8AD" transform="translate(179,285)"/>
<path d="M0 0 C0 13.86 0 27.72 0 42 C-13.86 42 -27.72 42 -42 42 C-37.6935594 26.2097178 -31.77529742 13.10038223 -17.40234375 4.18359375 C-11.86129757 1.4536149 -6.16209297 0 0 0 Z " fill="#30B9AE" transform="translate(169,287)"/>
<path d="M0 0 C13.53 0 27.06 0 41 0 C39.72852901 11.44323895 36.35428467 19.96415593 27.8203125 27.890625 C24.37239998 30.46939614 20.82222513 32.52970747 17 34.5 C16.34789551 34.83870117 15.69579102 35.17740234 15.02392578 35.52636719 C9.66293428 38.10209873 6.35739559 38.29362271 0 39 C0 26.13 0 13.26 0 0 Z " fill="#2FBAAF" transform="translate(179,341)"/>
<path d="M0 0 C13.53 0 27.06 0 41 0 C41 12.87 41 25.74 41 39 C25.9202371 35.98404742 15.84629622 30.74231763 6.89453125 18.00390625 C3.0054721 11.70924351 1.68744767 7.5935145 0 0 Z " fill="#2FB9AE" transform="translate(128,341)"/>
<path d="M0 0 C26.73 0 53.46 0 81 0 C81 4.29 81 8.58 81 13 C64.44606995 13.089293 47.90008579 12.82543703 31.34942627 12.53643799 C27.80198237 12.47486797 24.25450543 12.41526357 20.70703125 12.35546875 C13.80465472 12.23884781 6.90231945 12.11995157 0 12 C0 8.04 0 4.08 0 0 Z " fill="#E94A10" transform="translate(180,188)"/>
<path d="M0 0 C26.4 0 52.8 0 80 0 C80 3.63 80 7.26 80 11 C53.6 11 27.2 11 0 11 C0 7.37 0 3.74 0 0 Z " fill="#E84C0F" transform="translate(180,166)"/>
<path d="M0 0 C1.37021314 -0.00674188 1.37021314 -0.00674188 2.76810735 -0.01361996 C3.76994127 -0.00836593 4.77177519 -0.0031119 5.80396771 0.00230134 C6.87394689 -0.00000635 7.94392606 -0.00231404 9.04632884 -0.00469166 C12.66209184 -0.01002108 16.27767973 -0.00098311 19.89343381 0.00788796 C22.49963549 0.0070165 25.10583699 0.00526661 27.71203756 0.00270963 C33.39401474 -0.00144229 39.07595009 0.00185724 44.75792241 0.00998604 C53.20684345 0.02203981 61.65573803 0.02265917 70.1046661 0.02090207 C84.31603976 0.01827209 98.52739484 0.02496533 112.73876309 0.03693688 C126.81369994 0.04876316 140.88862905 0.0564672 154.96357083 0.05864251 C155.83808069 0.05877999 156.71259055 0.05891747 157.61360071 0.05905911 C162.05463321 0.05973576 166.49566571 0.06033853 170.93669823 0.06091286 C202.40822359 0.06511583 233.87973885 0.07859652 265.35125852 0.09751809 C295.92905745 0.11588113 326.50685361 0.13005121 357.08465695 0.13853371 C358.02688013 0.13879676 358.96910331 0.13905982 359.9398787 0.13933084 C369.40190555 0.14196784 378.86393242 0.14451947 388.32595932 0.14700856 C407.60190962 0.15208125 426.87785974 0.15772375 446.15380979 0.16371071 C447.04012414 0.16398529 447.92643849 0.16425987 448.83961085 0.16454277 C508.04548331 0.18295006 567.25135007 0.2146827 626.45721555 0.24839699 C626.45721555 4.53839699 626.45721555 8.82839699 626.45721555 13.24839699 C626.12721555 13.24839699 625.79721555 13.24839699 625.45721555 13.24839699 C625.45721555 9.28839699 625.45721555 5.32839699 625.45721555 1.24839699 C417.22721555 1.57839699 208.99721555 1.90839699 -5.54278445 2.24839699 C-5.54278445 20.72839699 -5.54278445 39.20839699 -5.54278445 58.24839699 C-6.20278445 58.24839699 -6.86278445 58.24839699 -7.54278445 58.24839699 C-8.51182315 51.78366823 -8.6738587 45.49790414 -8.6404407 38.96714699 C-8.63902575 37.91305642 -8.63761081 36.85896584 -8.63615298 35.77293313 C-8.63058953 32.43139128 -8.61804386 29.08991832 -8.60528445 25.74839699 C-8.60026473 23.4723563 -8.59570265 21.19631455 -8.59161258 18.92027199 C-8.58063209 13.36295713 -8.56393068 7.80568198 -8.54278445 2.24839699 C-5.5598749 0.53716714 -3.42749074 -0.00135904 0 0 Z " fill="#000746" transform="translate(328.54278445243835,371.7516030073166)"/>
<path d="M0 0 C69.3 0 138.6 0 210 0 C209.67 0.99 209.34 1.98 209 3 C205.03221434 4.32259522 201.21962316 4.16939804 197.08154297 4.18945312 C195.712687 4.20189308 195.712687 4.20189308 194.31617737 4.21458435 C192.33223077 4.23199168 190.34826354 4.24715663 188.36428452 4.26036072 C185.21945627 4.28140209 182.07473008 4.30842815 178.92996216 4.33703613 C172.24501429 4.39675472 165.56001806 4.44883579 158.875 4.5 C151.14807732 4.55934272 143.42120396 4.62183887 135.69437027 4.69187927 C132.60525347 4.71831724 129.51613143 4.73922017 126.42697144 4.7598877 C124.51625336 4.77650713 122.60553746 4.79338038 120.69482422 4.81054688 C119.84357468 4.81473129 118.99232513 4.81891571 118.11528015 4.82322693 C112.67842528 4.87941261 107.3958811 5.32357494 102 6 C102 5.34 102 4.68 102 4 C100.95199219 4.17917969 99.90398437 4.35835938 98.82421875 4.54296875 C97.4454502 4.75869444 96.06653587 4.97348984 94.6875 5.1875 C93.99720703 5.30802734 93.30691406 5.42855469 92.59570312 5.55273438 C90.57421875 5.85546875 90.57421875 5.85546875 87 6 C85.99596781 5.00404851 84.9960759 4.00390876 84 3 C81.00600239 2.74765419 78.22454633 2.67616326 75.234375 2.7421875 C74.34439316 2.74916656 73.45441132 2.75614563 72.53746033 2.76333618 C70.61266855 2.77951815 68.68792326 2.80226446 66.76327515 2.83081055 C61.67704671 2.9053997 56.59056498 2.93166637 51.50390625 2.9609375 C49.94836784 2.97148163 49.94836784 2.97148163 48.36140442 2.98223877 C37.79725066 3.03859978 27.24657004 2.80583205 16.6875 2.5 C15.83418091 2.47580994 14.98086182 2.45161987 14.10168457 2.42669678 C9.40084815 2.29263817 4.70033621 2.1505517 0 2 C0 1.34 0 0.68 0 0 Z " fill="#18B3AE" transform="translate(160,0)"/>
<path d="M0 0 C3.733125 -0.020625 7.46625 -0.04125 11.3125 -0.0625 C13.07267456 -0.07615601 13.07267456 -0.07615601 14.8684082 -0.09008789 C16.25805786 -0.09383423 16.25805786 -0.09383423 17.67578125 -0.09765625 C18.62364502 -0.10289307 19.57150879 -0.10812988 20.5480957 -0.11352539 C23 0 23 0 26 1 C26 9.25 26 17.5 26 26 C17.42 26 8.84 26 0 26 C0 17.42 0 8.84 0 0 Z " fill="#003D47" transform="translate(378,404)"/>
<path d="M0 0 C0.9583374 0.00523682 1.9166748 0.01047363 2.90405273 0.01586914 C4.45576172 0.02070313 4.45576172 0.02070313 6.03881836 0.02563477 C7.12743164 0.03401367 8.21604492 0.04239258 9.33764648 0.05102539 C10.97636719 0.05779297 10.97636719 0.05779297 12.64819336 0.06469727 C15.35723144 0.07652713 18.06616248 0.09300996 20.77514648 0.11352539 C20.77514648 0.77352539 20.77514648 1.43352539 20.77514648 2.11352539 C21.43514648 2.11352539 22.09514648 2.11352539 22.77514648 2.11352539 C22.77514648 10.03352539 22.77514648 17.95352539 22.77514648 26.11352539 C14.19514648 26.11352539 5.61514648 26.11352539 -3.22485352 26.11352539 C-3.24547852 22.00915039 -3.26610352 17.90477539 -3.28735352 13.67602539 C-3.29645752 12.37995361 -3.30556152 11.08388184 -3.31494141 9.74853516 C-3.31743896 8.735896 -3.31993652 7.72325684 -3.32250977 6.67993164 C-3.32774658 5.63780518 -3.3329834 4.59567871 -3.33837891 3.52197266 C-3.19081143 0.39132074 -3.12177875 0.1592919 0 0 Z " fill="#003D47" transform="translate(513.224853515625,403.886474609375)"/>
<path d="M0 0 C1.38251953 -0.00193359 1.38251953 -0.00193359 2.79296875 -0.00390625 C4.24896484 0.00189453 4.24896484 0.00189453 5.734375 0.0078125 C6.68957031 0.00394531 7.64476562 0.00007813 8.62890625 -0.00390625 C9.55574219 -0.00261719 10.48257813 -0.00132812 11.4375 0 C12.28473633 0.00112793 13.13197266 0.00225586 14.00488281 0.00341797 C16.484375 0.1328125 16.484375 0.1328125 21.484375 1.1328125 C21.484375 9.0528125 21.484375 16.9728125 21.484375 25.1328125 C12.904375 25.1328125 4.324375 25.1328125 -4.515625 25.1328125 C-5.97333509 8.18693271 -5.97333509 8.18693271 -5.515625 1.1328125 C-3.91427964 -0.46853286 -2.2130719 0.00296205 0 0 Z " fill="#003D47" transform="translate(645.515625,404.8671875)"/>
<path d="M0 0 C3.733125 -0.020625 7.46625 -0.04125 11.3125 -0.0625 C13.07267456 -0.07615601 13.07267456 -0.07615601 14.8684082 -0.09008789 C16.25805786 -0.09383423 16.25805786 -0.09383423 17.67578125 -0.09765625 C18.62364502 -0.10289307 19.57150879 -0.10812988 20.5480957 -0.11352539 C23 0 23 0 26 1 C25.67 9.25 25.34 17.5 25 26 C16.75 26 8.5 26 0 26 C0 17.42 0 8.84 0 0 Z " fill="#003D47" transform="translate(551,404)"/>
<path d="M0 0 C0 8.58 0 17.16 0 26 C-8.58 26 -17.16 26 -26 26 C-26 18.41 -26 10.82 -26 3 C-24.68 3 -23.36 3 -22 3 C-22 2.34 -22 1.68 -22 1 C-20.20887038 0.82765763 -18.41704909 0.66250319 -16.625 0.5 C-15.62726562 0.4071875 -14.62953125 0.314375 -13.6015625 0.21875 C-9.07546283 -0.0561541 -4.53444048 0 0 0 Z " fill="#003D47" transform="translate(708,404)"/>
<path d="M0 0 C7.92 0 15.84 0 24 0 C24 8.58 24 17.16 24 26 C16.08 26 8.16 26 0 26 C0 17.42 0 8.84 0 0 Z " fill="#003D47" transform="translate(420,404)"/>
<path d="M0 0 C1.18613892 0.00785522 1.18613892 0.00785522 2.39624023 0.01586914 C3.67724609 0.02070313 3.67724609 0.02070313 4.98413086 0.02563477 C5.88196289 0.03401367 6.77979492 0.04239258 7.70483398 0.05102539 C8.6065332 0.05553711 9.50823242 0.06004883 10.43725586 0.06469727 C12.67234712 0.07652315 14.90730835 0.09300319 17.14233398 0.11352539 C17.31342077 2.40486631 17.47895079 4.69662229 17.64233398 6.98852539 C17.73514648 8.26469727 17.82795898 9.54086914 17.92358398 10.85571289 C18.16746156 15.60261577 18.14233398 20.3603619 18.14233398 25.11352539 C11.21233398 25.11352539 4.28233398 25.11352539 -2.85766602 25.11352539 C-2.88449216 21.13431445 -2.90441995 17.15528198 -2.92016602 13.17602539 C-2.92854492 12.0397168 -2.93692383 10.9034082 -2.94555664 9.73266602 C-2.9487793 8.65307617 -2.95200195 7.57348633 -2.95532227 6.46118164 C-2.96055908 5.46094971 -2.9657959 4.46071777 -2.97119141 3.43017578 C-2.81151844 0.17181707 -2.81151844 0.17181707 0 0 Z " fill="#003D46" transform="translate(772.857666015625,404.886474609375)"/>
<path d="M0 0 C1.58206057 0.00667536 3.16410534 0.0186375 4.74609375 0.03515625 C5.55240234 0.03966797 6.35871094 0.04417969 7.18945312 0.04882812 C9.18753131 0.06065107 11.18557158 0.07858711 13.18359375 0.09765625 C14.4622099 2.65488854 14.29695984 4.46502727 14.28125 7.32421875 C14.27802734 8.35546875 14.27480469 9.38671875 14.27148438 10.44921875 C14.26310547 11.52945312 14.25472656 12.6096875 14.24609375 13.72265625 C14.24158203 14.810625 14.23707031 15.89859375 14.23242188 17.01953125 C14.22061165 19.71226287 14.2026758 22.40496634 14.18359375 25.09765625 C7.91359375 25.09765625 1.64359375 25.09765625 -4.81640625 25.09765625 C-4.84323239 21.11844531 -4.86316018 17.13941284 -4.87890625 13.16015625 C-4.88728516 12.02384766 -4.89566406 10.88753906 -4.90429688 9.71679688 C-4.90751953 8.63720703 -4.91074219 7.55761719 -4.9140625 6.4453125 C-4.91929932 5.44508057 -4.92453613 4.44484863 -4.92993164 3.41430664 C-4.73841315 -0.49390622 -4.11321628 0.10525118 0 0 Z " fill="#003D47" transform="translate(870.81640625,404.90234375)"/>
<path d="M0 0 C7.08939937 0.18506464 14.63620915 5.53456245 19.4375 10.5 C21.77125607 14.58407312 21.65978637 16.91835066 21.1875 21.5625 C20.1875 22.5625 20.1875 22.5625 17.375 23 C16.323125 22.855625 15.27125 22.71125 14.1875 22.5625 C12.79449818 20.60359119 11.46504554 18.5985882 10.1875 16.5625 C5.61153909 13.66640727 2.1128544 13.20271792 -3.25 13.3125 C-4.50683594 13.32796875 -5.76367188 13.3434375 -7.05859375 13.359375 C-10.85048685 13.50645165 -10.85048685 13.50645165 -14.72265625 14.140625 C-15.74230469 14.27984375 -16.76195313 14.4190625 -17.8125 14.5625 C-18.8125 13.5625 -18.8125 13.5625 -19.25 10.8125 C-18.8125 7.5625 -18.8125 7.5625 -16.375 4.8125 C-11.44359546 1.20387221 -5.88168865 0.86779013 0 0 Z " fill="#002635" transform="translate(101.8125,18.4375)"/>
<path d="M0 0 C1.2428547 5.54221131 0.91100229 10.75890563 0.5625 16.375 C0.51029297 17.30183594 0.45808594 18.22867187 0.40429688 19.18359375 C0.275445 21.4560722 0.13853103 23.72809105 0 26 C-4.29 26 -8.58 26 -13 26 C-13 17.75 -13 9.5 -13 1 C-3 0 -3 0 0 0 Z " fill="#003D47" transform="translate(820,404)"/>
<path d="M0 0 C4.29 0 8.58 0 13 0 C13.13227176 15.13740817 13.26278603 30.27483067 13.39115143 45.41227245 C13.45083447 52.44551023 13.51107918 59.47874227 13.57275391 66.51196289 C13.83988095 97.00801928 14.10083941 127.50247716 14 158 C12.68 157.67 11.36 157.34 10 157 C9.98541748 156.11328613 9.97083496 155.22657227 9.95581055 154.31298828 C9.89421681 150.97647924 9.81997118 147.64072286 9.73754883 144.3046875 C9.70459645 142.86957141 9.67647537 141.43433495 9.65356445 139.99902344 C9.52771161 132.31932238 9.29844546 125.19590427 6.53442383 117.91357422 C6 116 6 116 7 113 C7 113.66 7 114.32 7 115 C8.65 115.33 10.3 115.66 12 116 C12 78.38 12 40.76 12 2 C8.04 1.67 4.08 1.34 0 1 C0 0.67 0 0.34 0 0 Z " fill="#31CABD" transform="translate(416,45)"/>
<path d="M0 0 C3.96 0 7.92 0 12 0 C12 7.92 12 15.84 12 24 C7.71 24 3.42 24 -1 24 C-1.026926 20.56244791 -1.04680317 17.12510592 -1.0625 13.6875 C-1.07087891 12.71103516 -1.07925781 11.73457031 -1.08789062 10.72851562 C-1.09111328 9.79072266 -1.09433594 8.85292969 -1.09765625 7.88671875 C-1.10551147 6.59060669 -1.10551147 6.59060669 -1.11352539 5.26831055 C-1 3 -1 3 0 0 Z " fill="#003D46" transform="translate(902,406)"/>
<path d="M0 0 C-5.15867594 6.83947404 -10.34498865 13.53488149 -16.12109375 19.87109375 C-18.69121245 22.78318251 -21.02890875 25.8516284 -23.359375 28.95703125 C-25.10601208 31.13201027 -26.99642541 33.06175937 -29 35 C-30 34 -30 34 -30.39453125 30.328125 C-30.33451936 26.30464105 -29.14274294 24.21917171 -26.29125977 21.2824707 C-25.76201904 20.77675537 -25.23277832 20.27104004 -24.6875 19.75 C-23.58503368 18.63500753 -22.48349277 17.51909939 -21.3828125 16.40234375 C-20.81981445 15.84272949 -20.25681641 15.28311523 -19.67675781 14.70654297 C-18.03660064 13.0372508 -16.47570677 11.32288103 -14.9296875 9.56640625 C-14.44669189 9.01952148 -13.96369629 8.47263672 -13.46606445 7.90917969 C-12.13442573 6.39432192 -10.80352 4.87881991 -9.47265625 3.36328125 C-6.62865573 0.6450817 -3.87429339 -1.9371467 0 0 Z " fill="#18B6B0" transform="translate(167,200)"/>
<path d="M0 0 C1.21171875 0.00322266 2.4234375 0.00644531 3.671875 0.00976562 C4.94289063 0.01814453 6.21390625 0.02652344 7.5234375 0.03515625 C8.8021875 0.03966797 10.0809375 0.04417969 11.3984375 0.04882812 C14.56515042 0.06064422 17.73177106 0.0771181 20.8984375 0.09765625 C19.1875 5.86328125 19.1875 5.86328125 16.5859375 7.97265625 C10.65693493 9.78150449 3.73861873 10.48696115 -2.20703125 8.3359375 C-5.14990537 6.49754947 -6.93964274 4.35103159 -8.1015625 1.09765625 C-5.33538687 -0.28543156 -3.0913825 -0.01444571 0 0 Z " fill="#8D3D1F" transform="translate(500.1015625,144.90234375)"/>
<path d="M0 0 C3.3 0 6.6 0 10 0 C10 6.27 10 12.54 10 19 C6.7 19 3.4 19 0 19 C0 12.73 0 6.46 0 0 Z " fill="#ED4D0F" transform="translate(888,411)"/>
<path d="M0 0 C2.64 0 5.28 0 8 0 C8 7.59 8 15.18 8 23 C5.36 23 2.72 23 0 23 C0 15.41 0 7.82 0 0 Z " fill="#ED4D0D" transform="translate(408,407)"/>
<path d="M0 0 C2.64 0 5.28 0 8 0 C8 7.59 8 15.18 8 23 C5.36 23 2.72 23 0 23 C0 15.41 0 7.82 0 0 Z " fill="#E74B10" transform="translate(670,407)"/>
<path d="M0 0 C2.31 0 4.62 0 7 0 C8 1 8 1 8.11352539 3.04125977 C8.10828857 3.91580811 8.10305176 4.79035645 8.09765625 5.69140625 C8.09443359 6.63564453 8.09121094 7.57988281 8.08789062 8.55273438 C8.07951172 9.54595703 8.07113281 10.53917969 8.0625 11.5625 C8.05798828 12.55958984 8.05347656 13.55667969 8.04882812 14.58398438 C8.03700007 17.05604849 8.02051849 19.52799518 8 22 C5.36 22 2.72 22 0 22 C0 14.74 0 7.48 0 0 Z " fill="#E04C0F" transform="translate(539,408)"/>
<path d="M0 0 C26.07 0 52.14 0 79 0 C78.67 0.99 78.34 1.98 78 3 C52.59 2.67 27.18 2.34 1 2 C1 4.97 1 7.94 1 11 C2.98 11.495 2.98 11.495 5 12 C3.35 12 1.7 12 0 12 C0 8.04 0 4.08 0 0 Z " fill="#F94E0B" transform="translate(180,188)"/>
<path d="M0 0 C2.97 0 5.94 0 9 0 C9 6.27 9 12.54 9 19 C6.03 19 3.06 19 0 19 C0 12.73 0 6.46 0 0 Z " fill="#E6530E" transform="translate(794,411)"/>
<path d="M0 0 C0.66 0.33 1.32 0.66 2 1 C2 23.44 2 45.88 2 69 C1.34 69 0.68 69 0 69 C-2.25128305 53.24101862 -0.88557135 36.86794321 -0.5 21 C-0.45165127 18.95312905 -0.40347309 16.90625406 -0.35546875 14.859375 C-0.23894035 9.90620139 -0.12012132 4.95308772 0 0 Z " fill="#091F3F" transform="translate(56,361)"/>
<path d="M0 0 C1.58206057 0.00667536 3.16410534 0.0186375 4.74609375 0.03515625 C5.55240234 0.03966797 6.35871094 0.04417969 7.18945312 0.04882812 C9.18753131 0.06065107 11.18557158 0.07858711 13.18359375 0.09765625 C13.18359375 2.73765625 13.18359375 5.37765625 13.18359375 8.09765625 C7.24359375 8.09765625 1.30359375 8.09765625 -4.81640625 8.09765625 C-4.81640625 0.12324479 -4.81640625 0.12324479 0 0 Z " fill="#E24D12" transform="translate(500.81640625,44.90234375)"/>
<path d="M0 0 C0.33 0 0.66 0 1 0 C1.33 27.06 1.66 54.12 2 82 C-0.475 82.495 -0.475 82.495 -3 83 C-5 81 -5 81 -5.22705078 78.29443359 C-5.21657715 77.17375488 -5.20610352 76.05307617 -5.1953125 74.8984375 C-5.18886719 73.68671875 -5.18242187 72.475 -5.17578125 71.2265625 C-5.15902344 69.95554687 -5.14226562 68.68453125 -5.125 67.375 C-5.11146484 65.456875 -5.11146484 65.456875 -5.09765625 63.5 C-5.07402303 60.33314833 -5.04107629 57.16666576 -5 54 C-4.67 54 -4.34 54 -4 54 C-3.67 62.58 -3.34 71.16 -3 80 C-2.01 80.33 -1.02 80.66 0 81 C0 54.27 0 27.54 0 0 Z " fill="#011220" transform="translate(430,122)"/>
<path d="M0 0 C0 13.86 0 27.72 0 42 C-13.86 42 -27.72 42 -42 42 C-41.34 41.01 -40.68 40.02 -40 39 C-40 39.66 -40 40.32 -40 41 C-27.46 41 -14.92 41 -2 41 C-2 28.13 -2 15.26 -2 2 C-3.32 1.67 -4.64 1.34 -6 1 C-4 0 -4 0 0 0 Z " fill="#36D2C3" transform="translate(169,287)"/>
<path d="M0 0 C2.31 0 4.62 0 7 0 C7 0.33 7 0.66 7 1 C5.35 1 3.7 1 2 1 C2 11.56 2 22.12 2 33 C6.62 33 11.24 33 16 33 C16.66 33.33 17.32 33.66 18 34 C18 25.75 18 17.5 18 9 C18.33 9 18.66 9 19 9 C19 17.58 19 26.16 19 35 C12.73 35 6.46 35 0 35 C0 23.45 0 11.9 0 0 Z " fill="#2ECDC0" transform="translate(272,166)"/>
<path d="M0 0 C13.53 0 27.06 0 41 0 C41 12.87 41 25.74 41 39 C39.35 38.67 37.7 38.34 36 38 C36.99 37.67 37.98 37.34 39 37 C39 25.12 39 13.24 39 1 C26.79 1 14.58 1 2 1 C2.33 2.98 2.66 4.96 3 7 C2.34 6.67 1.68 6.34 1 6 C0.67 4.02 0.34 2.04 0 0 Z " fill="#35D2C3" transform="translate(128,341)"/>
<path d="M0 0 C2.87985652 1.33585621 5.22960555 2.84953738 7.6796875 4.86328125 C8.36160156 5.42080078 9.04351563 5.97832031 9.74609375 6.55273438 C10.44863281 7.13345703 11.15117188 7.71417969 11.875 8.3125 C12.56980469 8.88162109 13.26460937 9.45074219 13.98046875 10.03710938 C15.34753585 11.15831036 16.71123662 12.28363035 18.07128906 13.41333008 C19.30986441 14.43225428 20.56100566 15.43619614 21.82714844 16.4206543 C25.94715561 19.66311702 25.94715561 19.66311702 26.5 23.1875 C26 26 26 26 24 28 C18.72 28 13.44 28 8 28 C8 38.89 8 49.78 8 61 C7.67 61 7.34 61 7 61 C5.51991311 37.92650253 5.51991311 37.92650253 6 28 C8.05922402 25.94077598 12.21708124 26.58572421 15.0625 26.4375 C15.82111328 26.39431641 16.57972656 26.35113281 17.36132812 26.30664062 C19.24065438 26.20026367 21.12030244 26.09960066 23 26 C23.95502158 24.27523089 23.95502158 24.27523089 24 22 C21.93618533 19.43830189 21.93618533 19.43830189 19 17 C18.49227051 16.55527344 17.98454102 16.11054687 17.46142578 15.65234375 C15.84296553 14.25011098 14.20614886 12.87259098 12.5625 11.5 C12.01529297 11.03980469 11.46808594 10.57960938 10.90429688 10.10546875 C8.69699334 8.25081134 6.48928739 6.39832398 4.25341797 4.578125 C2.81872787 3.40578064 1.40702134 2.20541194 0 1 C0 0.67 0 0.34 0 0 Z " fill="#011626" transform="translate(573,17)"/>
<path d="M0 0 C2.0625 0.4375 2.0625 0.4375 4 1 C3.34 1 2.68 1 2 1 C2 19.48 2 37.96 2 57 C1.34 57 0.68 57 0 57 C-0.9617904 50.55065571 -1.14592813 44.2689483 -1.1328125 37.75390625 C-1.13376923 36.70218735 -1.13472595 35.65046844 -1.13571167 34.56687927 C-1.13638877 32.35912007 -1.13456743 30.15135883 -1.13037109 27.94360352 C-1.12497847 24.54894624 -1.13035117 21.15441902 -1.13671875 17.75976562 C-1.13605862 15.61197887 -1.13477882 13.4641922 -1.1328125 11.31640625 C-1.13483673 10.29672256 -1.13686096 9.27703888 -1.13894653 8.22645569 C-1.13579437 7.29135666 -1.13264221 6.35625763 -1.12939453 5.39282227 C-1.12859894 4.56645767 -1.12780334 3.74009308 -1.12698364 2.88868713 C-1 1 -1 1 0 0 Z " fill="#001843" transform="translate(321,373)"/>
<path d="M0 0 C0.72960937 0.44859375 1.45921875 0.8971875 2.2109375 1.359375 C8.70282933 5.53106 15.86329322 10.16540849 18 18 C18.66 18 19.32 18 20 18 C19.505 19.485 19.505 19.485 19 21 C18.484375 20.34 17.96875 19.68 17.4375 19 C9.9498789 9.78446634 3.98540805 2.83375674 -8.0625 0.375 C-20.03266444 -0.76501566 -30.42141893 0.04239764 -41.25390625 5.69921875 C-42.61322266 6.34310547 -42.61322266 6.34310547 -44 7 C-44.66 6.67 -45.32 6.34 -46 6 C-45.195625 5.731875 -44.39125 5.46375 -43.5625 5.1875 C-42.716875 4.795625 -41.87125 4.40375 -41 4 C-40.67 3.01 -40.34 2.02 -40 1 C-38.7934375 0.7834375 -38.7934375 0.7834375 -37.5625 0.5625 C-35.07896294 0.25864751 -35.07896294 0.25864751 -34 -1 C-28.00046356 -2.07893571 -21.9551058 -2.41806347 -15.875 -2.75 C-14.41126953 -2.85248047 -14.41126953 -2.85248047 -12.91796875 -2.95703125 C-4.24167352 -3.41866224 -4.24167352 -3.41866224 0 0 Z " fill="#15C2BB" transform="translate(703,141)"/>
<path d="M0 0 C0.66 0 1.32 0 2 0 C2 5.94 2 11.88 2 18 C-15.35412912 18.13557913 -32.65940102 17.60753496 -50 17 C-50 14.36 -50 11.72 -50 9 C-49.67 9 -49.34 9 -49 9 C-49 11.31 -49 13.62 -49 16 C-32.83 16 -16.66 16 0 16 C0 10.72 0 5.44 0 0 Z " fill="#F44D0B" transform="translate(413,185)"/>
<path d="M0 0 C15.18 0 30.36 0 46 0 C46 3.3 46 6.6 46 10 C44.35 10.66 42.7 11.32 41 12 C41.33 11.34 41.66 10.68 42 10 C42.66 10 43.32 10 44 10 C44 7.36 44 4.72 44 2 C29.81 2 15.62 2 1 2 C0.67 1.34 0.34 0.68 0 0 Z " fill="#33C3B5" transform="translate(441,45)"/>
<path d="M0 0 C1.26070312 -0.020625 2.52140625 -0.04125 3.8203125 -0.0625 C5.02429688 -0.06765625 6.22828125 -0.0728125 7.46875 -0.078125 C8.55607422 -0.0874707 9.64339844 -0.09681641 10.76367188 -0.10644531 C13.5 0.25 13.5 0.25 15.37695312 1.77050781 C15.74755859 2.25874023 16.11816406 2.74697266 16.5 3.25 C15.30455566 3.28758423 15.30455566 3.28758423 14.08496094 3.32592773 C10.47314778 3.44198789 6.86158898 3.56466931 3.25 3.6875 C1.36861328 3.74647461 1.36861328 3.74647461 -0.55078125 3.80664062 C-1.75605469 3.84853516 -2.96132812 3.89042969 -4.203125 3.93359375 C-5.31333008 3.97025146 -6.42353516 4.00690918 -7.56738281 4.04467773 C-10.03021849 4.21710904 -12.14482965 4.54595439 -14.5 5.25 C-14.5 4.26 -14.5 3.27 -14.5 2.25 C-18.13 2.25 -21.76 2.25 -25.5 2.25 C-25.5 1.92 -25.5 1.59 -25.5 1.25 C-16.9943017 0.30832897 -8.55403097 0.03586596 0 0 Z " fill="#28BCB2" transform="translate(231.5,1.75)"/>
<path d="M0 0 C0.99 0.495 0.99 0.495 2 1 C3.17448417 8.12031028 3.08789834 15.17612621 3 22.375 C2.97451897 24.50776204 2.95347644 26.64058309 2.9375 28.7734375 C2.92589844 29.70591309 2.91429687 30.63838867 2.90234375 31.59912109 C2.89477794 34.14668464 2.89477794 34.14668464 4 37 C3.505 37.495 3.505 37.495 3 38 C2.76924918 39.34747084 2.58846937 40.70377565 2.4375 42.0625 C2.293125 43.361875 2.14875 44.66125 2 46 C1.67 46 1.34 46 1 46 C-0.192371 36.27148934 -0.11514301 26.59317383 -0.0625 16.8125 C-0.05747294 15.17643367 -0.05291217 13.54036583 -0.04882812 11.90429688 C-0.03792277 7.93616014 -0.0207253 3.96809709 0 0 Z " fill="#041E3F" transform="translate(953,384)"/>
<path d="M0 0 C0.33 0.66 0.66 1.32 1 2 C-0.98 5.63 -2.96 9.26 -5 13 C12.82 13 30.64 13 49 13 C49 13.33 49 13.66 49 14 C30.69117634 15.3855326 12.34701605 15.09694789 -6 15 C-6.1875 7.34765625 -6.1875 7.34765625 -3 3.5625 C-2.443125 2.88316406 -1.88625 2.20382813 -1.3125 1.50390625 C-0.6628125 0.75947266 -0.6628125 0.75947266 0 0 Z " fill="#042742" transform="translate(468,123)"/>
<path d="M0 0 C2 0 2 0 3.5 1.25 C5.06636161 3.07742187 5.9281129 4.85622579 7 7 C7.53625 7.53625 8.0725 8.0725 8.625 8.625 C9.07875 9.07875 9.5325 9.5325 10 10 C10 10.66 10 11.32 10 12 C10.5878125 12.2371875 11.175625 12.474375 11.78125 12.71875 C15.20509838 14.69590188 16.95220933 17.73309306 19.21875 20.90625 C21.05838403 23.06862684 22.48139306 23.80725591 25 25 C25.70211894 26.65204456 26.36971413 28.31923769 27 30 C29.8684413 32.10232344 29.8684413 32.10232344 33 33 C32.67 34.65 32.34 36.3 32 38 C3.17948718 9.53846154 3.17948718 9.53846154 0 0 Z " fill="#0B213F" transform="translate(245,290)"/>
<path d="M0 0 C3.22870836 2.78275416 3.51988927 5.0754572 3.86474609 9.30273438 C4.17886093 15.56688732 4.28716856 21.84195035 4.34179688 28.11328125 C4.52080224 35.84988801 4.52080224 35.84988801 9 42 C9 42.99 9 43.98 9 45 C8.34 45 7.68 45 7 45 C2.38994279 37.45013504 1.2606247 31.2653799 1.25 22.5 C1.21635028 20.36453723 1.17992622 18.22911624 1.140625 16.09375 C1.12580078 15.07539062 1.11097656 14.05703125 1.09570312 13.0078125 C0.95690332 8.64553288 0.52026618 4.33151846 0 0 Z " fill="#052840" transform="translate(530,73)"/>
<path d="M0 0 C0.66 0.33 1.32 0.66 2 1 C1.34 2.32 0.68 3.64 0 5 C0.84820312 4.83628906 1.69640625 4.67257813 2.5703125 4.50390625 C6.0645531 3.99051555 9.34627574 3.90149261 12.875 3.9375 C14.02742188 3.94652344 15.17984375 3.95554688 16.3671875 3.96484375 C17.23601562 3.97644531 18.10484375 3.98804688 19 4 C19 4.33 19 4.66 19 5 C18.09378906 5.09796875 17.18757813 5.1959375 16.25390625 5.296875 C6.40674152 6.5056275 -1.49373712 8.22014965 -9 15 C-9.66 14.67 -10.32 14.34 -11 14 C-9.52307692 9.32307692 -9.52307692 9.32307692 -6.875 7.6875 C-5.946875 7.3471875 -5.946875 7.3471875 -5 7 C-5 6.01 -5 5.02 -5 4 C-2.5 1.8125 -2.5 1.8125 0 0 Z " fill="#1CC2BA" transform="translate(78,174)"/>
<path d="M0 0 C1.32 0.33 2.64 0.66 4 1 C3.01 1.66 2.02 2.32 1 3 C-0.40502148 8.14110134 -0.08047062 13.46308003 0 18.75 C0.02545683 20.45306217 0.04650772 22.15619766 0.0625 23.859375 C0.07410156 24.60670898 0.08570313 25.35404297 0.09765625 26.12402344 C0 28 0 28 -1 30 C-1.22622081 31.70363822 -1.40888473 33.41328701 -1.5625 35.125 C-1.68818359 36.49011719 -1.68818359 36.49011719 -1.81640625 37.8828125 C-1.87699219 38.58148438 -1.93757812 39.28015625 -2 40 C-2.66 39.67 -3.32 39.34 -4 39 C-3.93108257 34.08820497 -3.84309747 29.17725798 -3.73754883 24.26611328 C-3.7043273 22.59596167 -3.67628666 20.92569854 -3.65356445 19.25537109 C-3.61996666 16.85205637 -3.56765054 14.44976101 -3.51171875 12.046875 C-3.50532883 11.30193787 -3.4989389 10.55700073 -3.49235535 9.78948975 C-3.37399941 5.60141764 -2.98304101 3.04207674 0 0 Z " fill="#102D3D" transform="translate(957,304)"/>
<path d="M0 0 C1.06542673 3.37251618 0.92137472 6.17937927 0.6875 9.6875 C0.65510359 16.36116092 2.54304641 20.12071411 7 25 C7.804375 25.66902344 8.60875 26.33804688 9.4375 27.02734375 C15.85709799 32.41378769 15.85709799 32.41378769 16.3515625 37.90234375 C16.18959241 41.65457717 15.6666458 45.30668493 15 49 C14.67 49 14.34 49 14 49 C14 44.05 14 39.1 14 34 C12.68 33.34 11.36 32.68 10 32 C7.74609375 29.609375 7.74609375 29.609375 5.4375 26.75 C4.67308594 25.81671875 3.90867188 24.8834375 3.12109375 23.921875 C-1.27541898 17.86553702 -2.79949492 13.35273196 -2 6 C-1 2.4375 -1 2.4375 0 0 Z " fill="#091930" transform="translate(180,67)"/>
<path d="M0 0 C2 1.375 2 1.375 4 3 C4 3.66 4 4.32 4 5 C4.99 5.33 5.98 5.66 7 6 C8.53515625 7.59375 8.53515625 7.59375 10.0625 9.5 C12.17721767 12.18106401 12.17721767 12.18106401 15 14 C15.309375 14.99 15.61875 15.98 15.9375 17 C16.288125 17.99 16.63875 18.98 17 20 C17.99 20.33 18.98 20.66 20 21 C21.37351746 22.57376333 22.67878671 24.20799007 23.9375 25.875 C26.39681736 29.1256584 28.61214134 31.71111115 32 34 C31.67 34.99 31.34 35.98 31 37 C23.20306391 29.28601004 15.99372613 21.12654953 9.1171875 12.5859375 C6.57935358 9.48622153 3.92172551 6.51099766 1.21484375 3.55859375 C0 2 0 2 0 0 Z " fill="#0F223E" transform="translate(278,328)"/>
<path d="M0 0 C3.96 0 7.92 0 12 0 C12.12375 1.134375 12.2475 2.26875 12.375 3.4375 C12.58125 4.613125 12.7875 5.78875 13 7 C13.66 7.33 14.32 7.66 15 8 C9.30707666 8.45543387 6.3984985 7.68246386 2 4 C1.34 2.68 0.68 1.36 0 0 Z " fill="#DE4A11" transform="translate(492,146)"/>
<path d="M0 0 C0.66 0 1.32 0 2 0 C2 0.66 2 1.32 2 2 C0.84304602 3.15695398 -0.31876692 4.30943537 -1.50390625 5.4375 C-3.76816998 7.8022663 -5.59378631 10.45763481 -7.47265625 13.1328125 C-9 15 -9 15 -11.12109375 16.5546875 C-13.2928138 17.94653861 -13.2928138 17.94653861 -14 21 C-14.66 21.33 -15.32 21.66 -16 22 C-15.67 22.66 -15.34 23.32 -15 24 C-15.66 24 -16.32 24 -17 24 C-17.33 24.99 -17.66 25.98 -18 27 C-18.66 27 -19.32 27 -20 27 C-20.2475 27.639375 -20.495 28.27875 -20.75 28.9375 C-22 31 -22 31 -24.078125 31.62890625 C-24.71234375 31.75136719 -25.3465625 31.87382812 -26 32 C-19.51460939 23.20541728 -12.67338898 14.7229423 -5.625 6.375 C-5.10083496 5.7464209 -4.57666992 5.1178418 -4.03662109 4.47021484 C-2.73525231 2.94141415 -1.37243468 1.46533796 0 0 Z " fill="#062A41" transform="translate(124,253)"/>
<path d="M0 0 C0.66 0 1.32 0 2 0 C5.23335246 11.12764866 2.9275908 26.78605771 -2.53125 36.8125 C-3.9663943 39.24953748 -5.4465362 41.63712627 -7 44 C-7.66 43.01 -8.32 42.02 -9 41 C-8.34 41 -7.68 41 -7 41 C-6.7525 40.175 -6.505 39.35 -6.25 38.5 C-5.06938329 35.19427322 -3.6415175 32.35238146 -1.90234375 29.3203125 C0.57886263 22.94006751 0.12979697 15.74005029 0.0625 9 C0.05798828 8.12988281 0.05347656 7.25976562 0.04882812 6.36328125 C0.0371736 4.24215707 0.01924357 2.1210689 0 0 Z " fill="#0B2A3E" transform="translate(479,76)"/>
<path d="M0 0 C0.99 1.485 0.99 1.485 2 3 C2.66 3 3.32 3 4 3 C4 9.6 4 16.2 4 23 C2.68 23 1.36 23 0 23 C0 15.41 0 7.82 0 0 Z " fill="#273033" transform="translate(678,407)"/>
<path d="M0 0 C0.66 0.33 1.32 0.66 2 1 C2.02891546 5.45831982 2.04676981 9.91661569 2.0625 14.375 C2.07087891 15.64601563 2.07925781 16.91703125 2.08789062 18.2265625 C2.09111328 19.43828125 2.09433594 20.65 2.09765625 21.8984375 C2.10289307 23.01911621 2.10812988 24.13979492 2.11352539 25.29443359 C2 28 2 28 1 30 C0.34 30 -0.32 30 -1 30 C-1.1176305 19.93605753 -0.87801178 10.03442033 0 0 Z " fill="#102C3D" transform="translate(50,244)"/>
<path d="M0 0 C0.66 0 1.32 0 2 0 C2 4.29 2 8.58 2 13 C-4.6 13 -11.2 13 -18 13 C-18 12.67 -18 12.34 -18 12 C-16.35 11.67 -14.7 11.34 -13 11 C-13 10.67 -13 10.34 -13 10 C-8.71 10 -4.42 10 0 10 C0 6.7 0 3.4 0 0 Z " fill="#C34716" transform="translate(259,188)"/>
<path d="M0 0 C0.66 0.66 1.32 1.32 2 2 C1.071875 2.886875 0.14375 3.77375 -0.8125 4.6875 C-3.41131118 7.28026743 -5.11997186 9.84155273 -7 13 C-10.15115189 16.83881333 -13.45565305 20.52048866 -17 24 C-17.66 23.34 -18.32 22.68 -19 22 C-18.29875 21.24976563 -17.5975 20.49953125 -16.875 19.7265625 C-10.96125966 13.36033063 -5.31504342 6.88366655 0 0 Z " fill="#0B2B40" transform="translate(60,332)"/>
<path d="M0 0 C1.51400391 0.01740234 1.51400391 0.01740234 3.05859375 0.03515625 C4.07050781 0.04417969 5.08242188 0.05320313 6.125 0.0625 C7.29869141 0.07990234 7.29869141 0.07990234 8.49609375 0.09765625 C7.50609375 0.59265625 7.50609375 0.59265625 6.49609375 1.09765625 C6.49609375 2.41765625 6.49609375 3.73765625 6.49609375 5.09765625 C5.86960937 5.07445312 5.243125 5.05125 4.59765625 5.02734375 C3.78039062 5.00929687 2.963125 4.99125 2.12109375 4.97265625 C0.90292969 4.93785156 0.90292969 4.93785156 -0.33984375 4.90234375 C-2.71732868 4.88395574 -2.71732868 4.88395574 -4.50390625 7.09765625 C-4.83390625 6.10765625 -5.16390625 5.11765625 -5.50390625 4.09765625 C-2.84613796 0.11100382 -2.84613796 0.11100382 0 0 Z " fill="#19B0AA" transform="translate(535.50390625,146.90234375)"/>
<path d="M0 0 C0.87462891 0.00451172 1.74925781 0.00902344 2.65039062 0.01367188 C4.78779047 0.02535166 6.92515463 0.04328311 9.0625 0.0625 C9.0625 0.3925 9.0625 0.7225 9.0625 1.0625 C7.44794922 1.10117188 7.44794922 1.10117188 5.80078125 1.140625 C-4.84773997 1.51030581 -14.57172323 2.7298738 -24.17578125 7.7578125 C-25.08714844 8.18835938 -25.99851562 8.61890625 -26.9375 9.0625 C-27.5975 8.7325 -28.2575 8.4025 -28.9375 8.0625 C-28.133125 7.794375 -27.32875 7.52625 -26.5 7.25 C-25.654375 6.858125 -24.80875 6.46625 -23.9375 6.0625 C-23.6075 5.0725 -23.2775 4.0825 -22.9375 3.0625 C-21.7309375 2.8459375 -21.7309375 2.8459375 -20.5 2.625 C-18.01646294 2.32114751 -18.01646294 2.32114751 -16.9375 1.0625 C-11.27416897 -0.01300642 -5.75035781 -0.05684764 0 0 Z " fill="#18CAC2" transform="translate(685.9375,138.9375)"/>
<path d="M0 0 C0.66 0 1.32 0 2 0 C3.18359375 1.4609375 3.18359375 1.4609375 4.4375 3.375 C6.21688245 6.08590869 7.19194031 7.12796021 10 9 C10.33 9.99 10.66 10.98 11 12 C11.639375 12.28875 12.27875 12.5775 12.9375 12.875 C15.71680854 14.39098648 16.07115981 16.05867273 17 19 C13.88203366 18.69528965 12.97128788 17.96941754 10.78125 15.63671875 C10.0284375 14.66347656 9.275625 13.69023437 8.5 12.6875 C5.30412568 8.58433504 5.30412568 8.58433504 1.71875 4.83203125 C0 3 0 3 0 0 Z " fill="#0E243F" transform="translate(197,234)"/>
<path d="M0 0 C0.99 0 1.98 0 3 0 C2.7834375 1.485 2.7834375 1.485 2.5625 3 C1.99074821 6.99409465 1.49180166 10.99532937 1 15 C0.67 14.34 0.34 13.68 0 13 C-0.66 13 -1.32 13 -2 13 C-1.67 11.02 -1.34 9.04 -1 7 C-1.66 6.67 -2.32 6.34 -3 6 C-1.125 1.125 -1.125 1.125 0 0 Z " fill="#18B5B0" transform="translate(620,189)"/>
<path d="M0 0 C0.33 0 0.66 0 1 0 C1.33 8.58 1.66 17.16 2 26 C1.01 26 0.02 26 -1 26 C-1.14368684 17.28299826 -0.71961582 8.68679101 0 0 Z " fill="#D8A810" transform="translate(855,404)"/>
<path d="M0 0 C0.5775 0.78375 1.155 1.5675 1.75 2.375 C4.35244407 5.41118475 6.22931611 6.74316824 10.19824219 7.31884766 C10.97329102 7.35026855 11.74833984 7.38168945 12.546875 7.4140625 C13.39121094 7.45273438 14.23554688 7.49140625 15.10546875 7.53125 C16.41451172 7.57765625 16.41451172 7.57765625 17.75 7.625 C18.63816406 7.66367188 19.52632813 7.70234375 20.44140625 7.7421875 C22.6273998 7.83620873 24.81339062 7.92186143 27 8 C27 8.33 27 8.66 27 9 C23.56255588 9.16783262 20.12503622 9.33406544 16.6875 9.5 C15.71103516 9.54769531 14.73457031 9.59539062 13.72851562 9.64453125 C12.79072266 9.68964844 11.85292969 9.73476562 10.88671875 9.78125 C9.59060669 9.8440918 9.59060669 9.8440918 8.26831055 9.90820312 C6.51337696 9.97922401 4.75637008 10 3 10 C3 9.01 3 8.02 3 7 C2.01 6.67 1.02 6.34 0 6 C-0.38218767 4.34385343 -0.71395102 2.67542976 -1 1 C-0.67 0.67 -0.34 0.34 0 0 Z " fill="#1CC8BF" transform="translate(451,138)"/>
<path d="M0 0 C2.68408026 0.41829822 4.0660074 1.5865625 6.10546875 3.328125 C2.98145096 3.55349611 -0.14364458 3.75551148 -3.26953125 3.953125 C-4.15898437 4.01757812 -5.0484375 4.08203125 -5.96484375 4.1484375 C-6.815625 4.2 -7.66640625 4.2515625 -8.54296875 4.3046875 C-9.72125244 4.38323975 -9.72125244 4.38323975 -10.92333984 4.46337891 C-12.89453125 4.328125 -12.89453125 4.328125 -14.89453125 2.328125 C-14.56453125 1.998125 -14.23453125 1.668125 -13.89453125 1.328125 C-11.56119792 1.328125 -9.22786458 1.328125 -6.89453125 1.328125 C-5.04060979 -0.52579646 -2.47000088 0.09268296 0 0 Z " fill="#16B8B3" transform="translate(363.89453125,77.671875)"/>
<path d="M0 0 C0.99 0.33 1.98 0.66 3 1 C2.2575 1.37125 1.515 1.7425 0.75 2.125 C-2.46756298 4.31879294 -3.90994765 6.75681532 -6 10 C-6.66 10 -7.32 10 -8 10 C-8.19916016 10.85851562 -8.19916016 10.85851562 -8.40234375 11.734375 C-8.99380317 13.97650875 -9.73288854 16.08579619 -10.5625 18.25 C-10.83191406 18.95640625 -11.10132813 19.6628125 -11.37890625 20.390625 C-11.68634766 21.18726563 -11.68634766 21.18726563 -12 22 C-13.17611807 18.27425536 -12.69684664 15.88947389 -11.2265625 12.234375 C-8.70618844 7.64312034 -4.75474883 2.37737442 0 0 Z " fill="#011B2B" transform="translate(635,176)"/>
<path d="M0 0 C0.66 0 1.32 0 2 0 C2.7860262 10.95196507 2.7860262 10.95196507 -0.25 15 C-1.1575 15.66 -2.065 16.32 -3 17 C-3.721875 17.763125 -4.44375 18.52625 -5.1875 19.3125 C-7 21 -7 21 -9 21 C-7.63019599 17.74152682 -6.30037034 16.35765049 -3.375 14.4375 C-0.79283366 12.36855926 -0.07842165 11.4859461 0.45703125 8.16796875 C0.43935615 5.41418781 0.30668673 2.73584033 0 0 Z " fill="#021F2F" transform="translate(486,44)"/>
<path d="M0 0 C0.33 0.99 0.66 1.98 1 3 C1.99 3.33 2.98 3.66 4 4 C4 6.5000868 3.98213729 9.00031171 3.9375 11.5 C3.98716253 14.28110141 4.16302608 16.38445649 5 19 C4.01 19.33 3.02 19.66 2 20 C-0.29612756 6.3667426 -0.29612756 6.3667426 0 0 Z " fill="#1AB8B2" transform="translate(397,114)"/>
<path d="M0 0 C0.33 1.32 0.66 2.64 1 4 C-0.52994792 5.20442708 -2.05989583 6.40885417 -3.58984375 7.61328125 C-5.27155077 9.05683091 -5.27155077 9.05683091 -6 12 C-6.66 12 -7.32 12 -8 12 C-8.66 13.98 -9.32 15.96 -10 18 C-10.66 18 -11.32 18 -12 18 C-10.32537838 10.74330633 -5.26413461 5.07095536 0 0 Z " fill="#001C2C" transform="translate(310,140)"/>
<path d="M0 0 C2.97 0 5.94 0 9 0 C9.33 0.99 9.66 1.98 10 3 C9.34 3 8.68 3 8 3 C7.67 4.32 7.34 5.64 7 7 C5.35 6.67 3.7 6.34 2 6 C2 4.33333333 2 2.66666667 2 1 C1.34 0.67 0.68 0.34 0 0 Z " fill="#7C3922" transform="translate(506,147)"/>
<path d="M0 0 C0.33 0 0.66 0 1 0 C1.03738281 1.16917969 1.07476563 2.33835937 1.11328125 3.54296875 C1.1789628 5.09117675 1.24540939 6.63935242 1.3125 8.1875 C1.33505859 8.95642578 1.35761719 9.72535156 1.38085938 10.51757812 C1.60029736 15.1656736 2.15163686 18.15295151 5 22 C7 25 7 25 7 28 C6.34 28 5.68 28 5 28 C-1.22621145 19.14988515 -0.50628841 10.32828357 0 0 Z " fill="#0F2C3D" transform="translate(532,90)"/>
<path d="M0 0 C0.66 0.33 1.32 0.66 2 1 C2 4.96 2 8.92 2 13 C-0.90408342 9.12788877 -1.85079464 6.59682146 -3 2 C-2.01 2 -1.02 2 0 2 C0 1.34 0 0.68 0 0 Z " fill="#0A2A3C" transform="translate(1004,346)"/>
<path d="M0 0 C0.33 0 0.66 0 1 0 C1 3.96 1 7.92 1 12 C4.3 12 7.6 12 11 12 C11 12.66 11 13.32 11 14 C1.62773723 14.15620438 1.62773723 14.15620438 -1 13 C-1.33 12.01 -1.66 11.02 -2 10 C-1.67 9.67 -1.34 9.34 -1 9 C-0.76807135 7.48530552 -0.58784762 5.96245438 -0.4375 4.4375 C-0.35371094 3.61121094 -0.26992187 2.78492188 -0.18359375 1.93359375 C-0.12300781 1.29550781 -0.06242188 0.65742188 0 0 Z " fill="#0C2A3F" transform="translate(179,188)"/>
<path d="M0 0 C-0.50789062 0.31453125 -1.01578125 0.6290625 -1.5390625 0.953125 C-7.58042163 4.70917599 -13.49867542 8.46949741 -19 13 C-16.4202659 7.01133154 -11.1461981 3.29581772 -5.6875 0 C-3 -1 -3 -1 0 0 Z " fill="#001B2A" transform="translate(668,145)"/>
<path d="M0 0 C1.44664685 2.8932937 0.47451882 5.03457145 -0.328125 8.0390625 C-1.15061645 10.43958987 -2.35545548 12.08136473 -4 14 C-4.68620031 15.32338632 -5.35564504 16.65574225 -6 18 C-5.65532373 10.76179827 -3.89785009 6.08409811 0 0 Z " fill="#082040" transform="translate(125,304)"/>
<path d="M0 0 C0.33 0 0.66 0 1 0 C1 5.61 1 11.22 1 17 C0.01 16.34 -0.98 15.68 -2 15 C-1.85973717 12.68715544 -1.71264442 10.37472409 -1.5625 8.0625 C-1.48128906 6.77472656 -1.40007813 5.48695313 -1.31640625 4.16015625 C-1 1 -1 1 0 0 Z " fill="#032B40" transform="translate(929,298)"/>
<path d="M0 0 C0.66 0.66 1.32 1.32 2 2 C1.34 2 0.68 2 0 2 C0.99 3.98 1.98 5.96 3 8 C2.401875 7.649375 1.80375 7.29875 1.1875 6.9375 C-1.10813214 5.66695302 -1.10813214 5.66695302 -4 7 C-5.68538601 8.99665314 -5.68538601 8.99665314 -7 11 C-7.66 10.67 -8.32 10.34 -9 10 C-6.03 6.7 -3.06 3.4 0 0 Z " fill="#F0BB0C" transform="translate(173,210)"/>
<path d="M0 0 C0.33 0 0.66 0 1 0 C1 4.95 1 9.9 1 15 C1.66 15 2.32 15 3 15 C1.25 18.875 1.25 18.875 -1 20 C-0.67 13.4 -0.34 6.8 0 0 Z " fill="#F04B0A" transform="translate(966,377)"/>
<path d="M0 0 C2.54648693 1.98060095 4.93631794 3.93449845 7.1875 6.25 C8.81989123 8.2315315 8.81989123 8.2315315 11 8 C11.33 10.31 11.66 12.62 12 15 C8.94433539 12.03693129 6.02864172 8.98279839 3.1875 5.8125 C2.58292969 5.13832031 1.97835937 4.46414063 1.35546875 3.76953125 C0 2 0 2 0 0 Z " fill="#0B2140" transform="translate(219,260)"/>
<path d="M0 0 C0 0.33 0 0.66 0 1 C-8.415 1.495 -8.415 1.495 -17 2 C-17.33 1.34 -17.66 0.68 -18 0 C-5.33029613 -2.66514806 -5.33029613 -2.66514806 0 0 Z " fill="#353135" transform="translate(692,151)"/>
<path d="M0 0 C0.66 0 1.32 0 2 0 C1.37109375 1.88671875 1.37109375 1.88671875 0 4 C-2.71484375 5.08203125 -2.71484375 5.08203125 -5.9375 5.8125 C-7.52884766 6.19341797 -7.52884766 6.19341797 -9.15234375 6.58203125 C-12 7 -12 7 -15 6 C-13.25307205 5.32532438 -11.50231475 4.66055844 -9.75 4 C-8.77546875 3.62875 -7.8009375 3.2575 -6.796875 2.875 C-4 2 -4 2 0 2 C0 1.34 0 0.68 0 0 Z " fill="#0B1D33" transform="translate(208,49)"/>
<path d="M0 0 C0 3.60573896 -0.81707462 4.41336566 -3 7.1875 C-3.556875 7.90292969 -4.11375 8.61835938 -4.6875 9.35546875 C-5.120625 9.89816406 -5.55375 10.44085938 -6 11 C-5.34 11.33 -4.68 11.66 -4 12 C-4.33 12.66 -4.66 13.32 -5 14 C-5.99 13.67 -6.98 13.34 -8 13 C-7.54546538 8.90918838 -7.20080221 6.66733517 -4 4 C-3.67 3.34 -3.34 2.68 -3 2 C-2.01 1.34 -1.02 0.68 0 0 Z " fill="#052042" transform="translate(59,348)"/>
<path d="M0 0 C0 3.1819944 -0.41086442 4.32356113 -2 7 C-3 8 -4 9 -5 10 C-5.33 10.99 -5.66 11.98 -6 13 C-6.66 13 -7.32 13 -8 13 C-6.40956621 7.91061189 -3.2553049 4.12543357 0 0 Z " fill="#EB4F0B" transform="translate(38,285)"/>
<path d="M0 0 C-2.48617847 2.48617847 -4.6807613 2.8935871 -8 4 C-8.9075 4.556875 -9.815 5.11375 -10.75 5.6875 C-11.4925 6.120625 -12.235 6.55375 -13 7 C-13.66 6.67 -14.32 6.34 -15 6 C-10.16676765 1.85722941 -6.46402065 -0.36937261 0 0 Z " fill="#EB4E0C" transform="translate(961,251)"/>
<path d="M0 0 C-1.3937282 4.43458973 -3.60582235 6.87378374 -7 10 C-6.51020408 3.51020408 -6.51020408 3.51020408 -4.0625 1.0625 C-2 0 -2 0 0 0 Z " fill="#16AEAA" transform="translate(164,200)"/>
<path d="M0 0 C-2.85508218 1.440578 -5.72317245 2.84334242 -8.625 4.1875 C-9.40101563 4.55230469 -10.17703125 4.91710937 -10.9765625 5.29296875 C-11.64429688 5.52628906 -12.31203125 5.75960938 -13 6 C-13.66 5.67 -14.32 5.34 -15 5 C-9.83783423 1.24569762 -6.43985624 -0.67081836 0 0 Z " fill="#011C2D" transform="translate(229,6)"/>
<path d="M0 0 C0.33 0.99 0.66 1.98 1 3 C-1.64 5.97 -4.28 8.94 -7 12 C-7 9.29745539 -6.96569331 7.49470772 -6 5 C-4.0625 3.9375 -4.0625 3.9375 -2 3 C-1.34 2.01 -0.68 1.02 0 0 Z " fill="#0B2240" transform="translate(76,327)"/>
<path d="M0 0 C0.66 0.33 1.32 0.66 2 1 C0.8553125 2.485 0.8553125 2.485 -0.3125 4 C-3.05487322 7.80971735 -4.51991422 11.55974265 -6 16 C-7.21097999 12.36706002 -6.67110261 11.46007593 -5.25 8 C-4.90453125 7.13375 -4.5590625 6.2675 -4.203125 5.375 C-3.04051326 3.07997422 -1.92268751 1.67958909 0 0 Z " fill="#072842" transform="translate(638,186)"/>
<path d="M0 0 C0.99 0 1.98 0 3 0 C3 1.32 3 2.64 3 4 C3.94875 4.268125 4.8975 4.53625 5.875 4.8125 C9 6 9 6 11 9 C9.53932801 8.54917531 8.08151968 8.08906463 6.625 7.625 C5.81289063 7.36976562 5.00078125 7.11453125 4.1640625 6.8515625 C2 6 2 6 0 4 C0 2.68 0 1.36 0 0 Z " fill="#012231" transform="translate(520,50)"/>
<path d="M0 0 C2.125 0.375 2.125 0.375 4 1 C3.01 1.33 2.02 1.66 1 2 C0.938125 2.928125 0.87625 3.85625 0.8125 4.8125 C0 8 0 8 -2.5625 9.875 C-3.7690625 10.431875 -3.7690625 10.431875 -5 11 C-4.54917531 9.53932801 -4.08906463 8.08151968 -3.625 6.625 C-3.36976563 5.81289062 -3.11453125 5.00078125 -2.8515625 4.1640625 C-2 2 -2 2 0 0 Z " fill="#102C3F" transform="translate(371,167)"/>
<path d="M0 0 C0.66 0.33 1.32 0.66 2 1 C1.649375 1.61875 1.29875 2.2375 0.9375 2.875 C0.4734375 3.926875 0.4734375 3.926875 0 5 C0.33 5.66 0.66 6.32 1 7 C-0.65 7.66 -2.3 8.32 -4 9 C-4.33 7.35 -4.66 5.7 -5 4 C-3.35 2.68 -1.7 1.36 0 0 Z " fill="#16B1AD" transform="translate(78,174)"/>
<path d="M0 0 C1 3 1 3 0.07421875 4.8671875 C-0.38339844 5.52976562 -0.84101563 6.19234375 -1.3125 6.875 C-3.28129124 9.8391246 -4.835953 12.61368147 -6 16 C-7 13 -7 13 -5.8203125 10.1171875 C-5.26085937 9.04726563 -4.70140625 7.97734375 -4.125 6.875 C-3.57070312 5.79992187 -3.01640625 4.72484375 -2.4453125 3.6171875 C-1 1 -1 1 0 0 Z " fill="#36D1C1" transform="translate(137,305)"/>
<path d="M0 0 C1.51953125 1.17578125 1.51953125 1.17578125 3 3 C3.07421875 5.48046875 3.07421875 5.48046875 2.6875 8.1875 C2.56761719 9.08855469 2.44773437 9.98960937 2.32421875 10.91796875 C2.21722656 11.60503906 2.11023438 12.29210937 2 13 C1.01 12.67 0.02 12.34 -1 12 C-0.34 12 0.32 12 1 12 C0.67 11.01 0.34 10.02 0 9 C-0.06740865 7.43881572 -0.08514456 5.8749748 -0.0625 4.3125 C-0.05347656 3.50425781 -0.04445313 2.69601562 -0.03515625 1.86328125 C-0.02355469 1.24839844 -0.01195312 0.63351562 0 0 Z " fill="#0F2C3F" transform="translate(984,374)"/>
<path d="M0 0 C0.99 0.33 1.98 0.66 3 1 C2.21625 1.2475 1.4325 1.495 0.625 1.75 C-2.42295608 3.20140766 -2.72536664 3.99550707 -4 7 C-5.625 8.75 -5.625 8.75 -7 10 C-7.33 9.01 -7.66 8.02 -8 7 C-6.74057614 5.80040625 -5.46704714 4.61560557 -4.1875 3.4375 C-3.12595703 2.44556641 -3.12595703 2.44556641 -2.04296875 1.43359375 C-1.36878906 0.96050781 -0.69460938 0.48742188 0 0 Z " fill="#032431" transform="translate(711,11)"/>
<path d="M0 0 C3.75376152 1.25125384 4.24073289 2.5652404 6 6 C6 6.66 6 7.32 6 8 C6.99 8.33 7.98 8.66 9 9 C8.34 9.66 7.68 10.32 7 11 C6.01216806 9.92456217 5.03506057 8.83926783 4.0625 7.75 C3.51722656 7.14671875 2.97195312 6.5434375 2.41015625 5.921875 C0.93787201 3.91532695 0.42470811 2.42997551 0 0 Z " fill="#0F263C" transform="translate(176,210)"/>
<path d="M0 0 C0.66 0.99 1.32 1.98 2 3 C1.4375 5.625 1.4375 5.625 0 8 C-2.625 8.8125 -2.625 8.8125 -5 9 C-5 8.34 -5 7.68 -5 7 C-4.01 6.34 -3.02 5.68 -2 5 C-0.79549696 2.44816596 -0.79549696 2.44816596 0 0 Z " fill="#0A2B3D" transform="translate(521,145)"/>
<path d="M0 0 C0.33 0 0.66 0 1 0 C1 2.97 1 5.94 1 9 C-0.32 9 -1.64 9 -3 9 C-2.01 6.03 -1.02 3.06 0 0 Z " fill="#092C3E" transform="translate(1005,421)"/>
<path d="M0 0 C3.24299151 2.38957269 5.50902342 4.2047869 7 8 C5.68 8.33 4.36 8.66 3 9 C2 6 1 3 0 0 Z " fill="#F2BD0B" transform="translate(249,297)"/>
<path d="M0 0 C0 0.99 0 1.98 0 3 C-2.64 3.33 -5.28 3.66 -8 4 C-8 3.01 -8 2.02 -8 1 C-5.07175348 0.02391783 -3.04386724 -0.08226668 0 0 Z " fill="#22B0A8" transform="translate(255,2)"/>
<path d="M0 0 C1.98 0 3.96 0 6 0 C4.38405168 2.04119788 2.7143618 4.04072937 1 6 C0.34 6 -0.32 6 -1 6 C-0.67 4.02 -0.34 2.04 0 0 Z " fill="#21303A" transform="translate(977,373)"/>
<path d="M0 0 C0.33 0 0.66 0 1 0 C1.09688221 5.44693314 1.12862175 10.63904667 0 16 C-0.33 16 -0.66 16 -1 16 C-2.0006709 10.03654233 -2.0662997 5.71271093 0 0 Z " fill="#022640" transform="translate(17,330)"/>
<path d="M0 0 C0.763125 0.556875 1.52625 1.11375 2.3125 1.6875 C2.3125 2.3475 2.3125 3.0075 2.3125 3.6875 C-3.6275 2.6975 -3.6275 2.6975 -9.6875 1.6875 C-3.19338235 -1.55955882 -3.19338235 -1.55955882 0 0 Z " fill="#15B4AF" transform="translate(700.6875,139.3125)"/>
<path d="M0 0 C2.97 0.495 2.97 0.495 6 1 C5.67 1.99 5.34 2.98 5 4 C3.02 4 1.04 4 -1 4 C-0.67 2.68 -0.34 1.36 0 0 Z " fill="#102D3C" transform="translate(688,182)"/>
<path d="M0 0 C-3.22844826 2.15229884 -5.18974777 2.60309873 -9 3 C-9.99 2.67 -10.98 2.34 -12 2 C-8.09971775 -0.60018816 -4.52565431 -0.15085514 0 0 Z " fill="#001D2D" transform="translate(681,141)"/>
<path d="M0 0 C0.99 0 1.98 0 3 0 C3 0.66 3 1.32 3 2 C4.98 1.67 6.96 1.34 9 1 C8.01 2.485 8.01 2.485 7 4 C4.375 4.1875 4.375 4.1875 2 4 C1.34 2.68 0.68 1.36 0 0 Z " fill="#071A2E" transform="translate(873,45)"/>
<path d="M0 0 C3.73884332 2.65654657 5.64978174 4.58110387 7 9 C5.35 8.67 3.7 8.34 2 8 C2.33 7.01 2.66 6.02 3 5 C2.2575 4.319375 2.2575 4.319375 1.5 3.625 C0 2 0 2 0 0 Z " fill="#F3C30A" transform="translate(302,358)"/>
<path d="M0 0 C0.99 0 1.98 0 3 0 C2.34 2.64 1.68 5.28 1 8 C0.01 6.68 -0.98 5.36 -2 4 C-1.34 2.68 -0.68 1.36 0 0 Z " fill="#062B3C" transform="translate(123,215)"/>
<path d="M0 0 C0.556875 0.28875 1.11375 0.5775 1.6875 0.875 C4.02189686 2.06635767 4.02189686 2.06635767 6.6875 2.9375 C7.450625 3.288125 8.21375 3.63875 9 4 C9.33 4.99 9.66 5.98 10 7 C5.04303419 5.76075855 2.88341534 4.21422242 0 0 Z " fill="#01192A" transform="translate(486,155)"/>
<path d="M0 0 C0.33 0.66 0.66 1.32 1 2 C-1.52788007 4.79872437 -3.20411134 6.45773019 -7 7 C-4.78071806 4.09197539 -3.07030857 2.04687238 0 0 Z " fill="#001929" transform="translate(942,245)"/>
<path d="M0 0 C1.65 0.33 3.3 0.66 5 1 C4.34 2.65 3.68 4.3 3 6 C2.67 5.01 2.34 4.02 2 3 C1.01 2.67 0.02 2.34 -1 2 C-0.67 1.34 -0.34 0.68 0 0 Z " fill="#1CB9B2" transform="translate(300,143)"/>
<path d="M0 0 C1.65 0 3.3 0 5 0 C5.33 0.99 5.66 1.98 6 3 C5.34 3.66 4.68 4.32 4 5 C3.67 4.34 3.34 3.68 3 3 C2.01 3 1.02 3 0 3 C0 2.01 0 1.02 0 0 Z " fill="#192C3E" transform="translate(59,302)"/>
<path d="M0 0 C0.66 0.66 1.32 1.32 2 2 C1.01 4.31 0.02 6.62 -1 9 C-1.99 8.67 -2.98 8.34 -4 8 C-2.68 5.36 -1.36 2.72 0 0 Z " fill="#07263E" transform="translate(935,266)"/>
<path d="M0 0 C4.51617599 -0.07654536 8.59085217 -0.10228696 13 1 C13 1.33 13 1.66 13 2 C11.35 2 9.7 2 8 2 C7.67 2.66 7.34 3.32 7 4 C6.67 3.34 6.34 2.68 6 2 C2.97065509 1.34227572 2.97065509 1.34227572 0 1 C0 0.67 0 0.34 0 0 Z " fill="#002542" transform="translate(724,206)"/>
<path d="M0 0 C0.99 0.33 1.98 0.66 3 1 C4.1875 4.0625 4.1875 4.0625 5 7 C2 6 2 6 0 3 C0 2.01 0 1.02 0 0 Z " fill="#092D3F" transform="translate(340,166)"/>
<path d="M0 0 C0.99 0.33 1.98 0.66 3 1 C3 2.98 3 4.96 3 7 C2.01 7 1.02 7 0 7 C0 4.69 0 2.38 0 0 Z " fill="#05263E" transform="translate(274,132)"/>
<path d="M0 0 C1 2 1 2 0.0625 5.125 C-0.288125 6.07375 -0.63875 7.0225 -1 8 C-1.66 8 -2.32 8 -3 8 C-2.25 2.25 -2.25 2.25 0 0 Z " fill="#021F2E" transform="translate(173,59)"/>
</svg>
