<svg version="1.1" id="Layer_1" xmlns="http://www.w3.org/2000/svg" xmlns:xlink="http://www.w3.org/1999/xlink" x="0px" y="0px"
	 width="100%" viewBox="0 0 854 338" enable-background="new 0 0 854 338" xml:space="preserve">
<path fill="#FAFDE7" opacity="1.000000" stroke="none" 
	d="
M539.000000,339.000000 
	C359.333344,339.000000 180.166672,339.000000 1.000000,339.000000 
	C1.000000,226.333328 1.000000,113.666664 1.000000,1.000000 
	C285.666656,1.000000 570.333313,1.000000 855.000000,1.000000 
	C855.000000,113.666664 855.000000,226.333328 855.000000,339.000000 
	C749.833313,339.000000 644.666687,339.000000 539.000000,339.000000 
M69.732697,36.193237 
	C60.679546,44.738815 50.918106,52.658417 42.707565,61.948673 
	C19.149729,88.604454 6.228311,120.212830 3.248402,155.489578 
	C1.070425,181.272934 4.306736,206.595764 14.068496,230.884750 
	C27.052879,263.192200 47.716087,289.449066 76.678482,308.594696 
	C113.206047,332.741272 153.543106,340.971039 196.773743,334.054535 
	C235.942200,327.787964 268.859009,309.392700 294.585266,279.515869 
	C329.149750,239.374847 341.696075,192.500168 332.966766,140.185394 
	C327.998077,110.408165 315.001190,84.161331 295.504761,61.368649 
	C279.076660,42.163052 259.080963,27.415886 235.725571,17.295822 
	C209.154190,5.782263 181.336151,1.680357 152.776627,4.286933 
	C122.531288,7.047369 94.971947,17.859884 69.732697,36.193237 
M401.985321,171.569366 
	C404.807800,185.756348 412.394043,190.451996 428.413452,185.083328 
	C439.994171,181.202240 447.830139,172.438812 452.793304,161.382111 
	C456.890289,152.255112 456.044006,143.234268 451.069183,134.568634 
	C442.011688,118.791489 427.834137,111.727081 410.210907,111.233284 
	C395.249664,110.814072 392.459869,113.248764 394.091187,128.131226 
	C395.661163,142.454025 399.172241,156.564041 401.985321,171.569366 
M512.562866,267.242188 
	C522.421936,269.148102 532.147339,268.291290 541.625061,265.287506 
	C548.549500,263.092957 553.322388,258.253296 553.450012,250.813812 
	C553.603149,241.893219 553.001709,232.913727 551.961121,224.049667 
	C551.688049,221.724014 548.615967,217.948837 546.769653,217.912964 
	C540.767456,217.796402 534.681824,218.838699 528.765442,220.085648 
	C527.571960,220.337204 526.052490,223.629929 526.367004,225.178558 
	C526.692200,226.779434 529.141663,229.200546 530.534302,229.117767 
	C536.797852,228.745392 537.714294,232.527985 537.917725,237.270218 
	C538.010376,239.430084 538.140564,241.588501 538.217834,243.748856 
	C538.389343,248.544678 536.250732,250.803787 531.428711,250.954559 
	C520.332703,251.301514 511.513123,242.221054 512.237671,231.139786 
	C512.411194,228.485855 512.772339,225.844391 513.036499,223.196136 
	C513.888184,214.659378 517.720703,208.625336 526.348816,205.828003 
	C530.722290,204.410080 534.728760,201.859787 539.419861,199.568054 
	C529.979431,193.261078 520.547241,194.680222 512.728577,203.390808 
	C501.105896,216.339417 496.161316,231.714005 498.087036,248.990677 
	C499.028351,257.435638 503.190094,264.065125 512.562866,267.242188 
M675.208801,263.212219 
	C678.056702,266.956146 682.048523,268.314240 686.299316,267.031921 
	C693.098083,264.980988 699.953247,262.781281 706.301270,259.661163 
	C713.401917,256.171112 718.130676,250.135147 720.376343,242.352356 
	C725.353638,225.102615 710.133667,199.981476 692.508728,196.410706 
	C686.811462,195.256454 681.628906,197.157135 678.836121,202.227036 
	C677.029785,205.506088 675.464294,209.225174 675.027161,212.894333 
	C673.631958,224.605804 672.411133,236.371017 671.970764,248.147186 
	C671.792542,252.911682 673.804810,257.758087 675.208801,263.212219 
M607.053467,248.472427 
	C610.441589,235.751526 609.975220,223.317505 603.259338,211.756775 
	C596.240051,199.673660 582.560059,198.478119 573.165527,208.773849 
	C562.648315,220.299973 560.424927,244.933838 568.708252,258.158966 
	C575.750549,269.402740 591.752502,270.994904 600.389465,260.924805 
	C603.229309,257.613678 604.755554,253.175888 607.053467,248.472427 
M575.058533,148.590637 
	C574.747314,154.065277 574.112793,159.550659 574.294006,165.008957 
	C574.360596,167.015747 576.008545,170.250610 577.541748,170.661346 
	C580.723450,171.513748 582.727966,168.913971 583.111023,165.764755 
	C583.571106,161.982742 583.707642,158.157532 583.889954,154.346527 
	C584.133972,149.244644 587.082458,145.908722 592.030701,145.276016 
	C596.647705,144.685684 599.217346,146.760071 600.962646,151.907852 
	C602.452087,156.301163 603.849548,160.843414 606.185730,164.787857 
	C607.595947,167.168884 610.954468,170.191864 613.010864,169.901764 
	C615.175598,169.596344 618.007324,165.900482 618.476990,163.310547 
	C619.619934,157.008331 620.383179,150.416626 619.825867,144.070953 
	C618.515381,129.149536 612.990051,116.020599 600.640869,106.598236 
	C595.230591,102.470222 590.976501,102.932976 587.035217,108.463531 
	C584.943115,111.399208 582.959656,114.698380 582.043274,118.131409 
	C579.434143,127.905052 577.398071,137.831635 575.058533,148.590637 
M472.997406,164.699448 
	C473.115692,163.543076 473.132721,162.365570 473.369141,161.233871 
	C474.629181,155.202362 477.777802,152.414398 483.411713,151.953613 
	C489.312988,151.470963 490.093689,155.996124 491.950653,159.930878 
	C493.829254,163.911407 496.055481,167.920334 498.989441,171.130875 
	C500.505707,172.790070 504.827087,174.099747 506.201630,173.146286 
	C508.175201,171.777298 509.980133,167.906479 509.490021,165.608521 
	C506.132690,149.866913 502.518524,134.116638 494.766541,119.792900 
	C492.428741,115.473137 489.934692,110.342926 484.098450,110.412682 
	C478.190063,110.483292 475.499420,115.592186 474.040131,120.230591 
	C469.370148,135.074570 465.166656,150.073181 461.133575,165.106110 
	C459.314850,171.885330 460.779510,175.231796 464.666870,175.849075 
	C469.678467,176.644882 472.121307,173.887817 472.902771,166.551025 
	C472.937988,166.220383 472.957428,165.888062 472.997406,164.699448 
M635.482483,198.795517 
	C632.429199,201.284271 628.763367,203.303192 626.430725,206.344635 
	C617.248718,218.316345 616.947998,241.064209 625.463928,253.600418 
	C629.989746,260.262939 636.150513,264.159424 644.441956,263.155334 
	C652.429932,262.187988 656.441101,256.403992 658.765747,249.503052 
	C663.271606,236.126297 663.015625,222.635590 658.123718,209.415909 
	C653.991699,198.249634 647.870422,195.398636 635.482483,198.795517 
M519.002014,115.581703 
	C515.070618,116.861603 511.018433,117.864510 507.246582,119.510056 
	C504.291901,120.799095 504.504395,122.902397 507.114685,124.757988 
	C510.148956,126.915031 513.019226,126.374191 516.352783,125.073677 
	C527.915955,120.562645 532.452515,123.514198 533.368286,135.736801 
	C533.479126,137.216431 533.378723,138.711472 533.386475,140.199326 
	C533.430725,148.654648 532.989868,157.150696 533.690674,165.551422 
	C534.183411,171.457123 538.494263,175.245590 542.740845,175.367920 
	C546.278320,175.469833 550.964233,171.339966 551.839233,166.031494 
	C552.692322,160.856415 552.625977,155.480133 552.487793,150.204636 
	C552.335815,144.401154 551.258240,138.611008 551.271484,132.816605 
	C551.292358,123.693947 554.835388,119.884300 563.704834,118.295731 
	C565.331848,118.004326 567.242371,118.015831 568.484802,117.132133 
	C570.834534,115.460831 572.794312,113.241333 574.916199,111.249634 
	C572.191467,110.551125 569.370422,108.999367 566.757751,109.294075 
	C551.076050,111.062950 535.442261,113.256119 519.002014,115.581703 
M709.328430,113.731461 
	C695.918274,122.472290 692.564514,145.311325 703.007751,157.374969 
	C706.901062,161.872314 711.937561,163.525238 717.815369,162.410233 
	C730.558716,159.992889 739.277344,147.577530 739.140869,132.067078 
	C738.980896,113.876823 726.612244,105.928970 709.328430,113.731461 
M761.422119,153.684982 
	C761.581421,152.503433 761.740784,151.321884 762.026550,149.203110 
	C768.039795,153.087280 773.222839,156.655502 778.622864,159.858078 
	C783.517517,162.760925 788.163757,161.524384 790.702209,157.077423 
	C792.897705,153.231201 791.823608,149.764694 786.907043,146.712341 
	C782.738892,144.124619 778.272400,142.017471 773.914978,139.685379 
	C781.490662,128.954514 780.175293,119.302795 770.285217,112.079384 
	C766.096191,109.019836 761.738831,108.646820 757.249329,111.477295 
	C751.182129,115.302444 747.254578,120.849663 747.447205,127.927925 
	C747.740601,138.708054 748.751831,149.508545 750.294495,160.179489 
	C750.585571,162.193008 754.620605,164.711014 757.210815,165.096527 
	C760.917480,165.648239 761.209412,161.952499 761.392517,159.061615 
	C761.487183,157.567413 761.417603,156.062805 761.422119,153.684982 
M681.491516,146.071304 
	C684.602722,145.727280 688.646362,146.970657 689.136169,141.943909 
	C689.547852,137.718124 686.916016,134.890152 681.878601,134.083908 
	C680.089294,133.797531 678.230286,133.719727 676.420593,133.830917 
	C671.454895,134.135971 670.163452,132.771042 670.881409,127.915024 
	C671.443298,124.114349 673.816956,121.965767 677.277161,121.066086 
	C680.164490,120.315353 683.162354,119.965065 686.125671,119.537338 
	C689.345886,119.072525 692.311462,118.095970 691.767212,114.133469 
	C691.265686,110.481682 688.282043,109.211464 685.039978,109.721458 
	C678.829895,110.698364 672.526672,111.598450 666.558472,113.473740 
	C658.154175,116.114464 655.674377,119.896851 655.844116,128.695724 
	C656.027100,138.179184 656.591370,147.657776 657.142700,157.129562 
	C657.256287,159.081390 657.761597,161.126358 658.584351,162.896988 
	C660.329834,166.653427 666.267395,169.197708 670.137451,167.945038 
	C674.790649,166.438873 672.668518,162.451797 672.977844,159.417847 
	C673.091248,158.304825 672.616089,157.132416 672.413086,155.986435 
	C670.975647,147.872955 672.387146,146.162201 681.491516,146.071304 
z"/>
<path fill="#EAFC83" opacity="1.000000" stroke="none" 
	d="
M70.043488,36.017227 
	C94.971947,17.859884 122.531288,7.047369 152.776627,4.286933 
	C181.336151,1.680357 209.154190,5.782263 235.725571,17.295822 
	C259.080963,27.415886 279.076660,42.163052 295.504761,61.368649 
	C315.001190,84.161331 327.998077,110.408165 332.966766,140.185394 
	C341.696075,192.500168 329.149750,239.374847 294.585266,279.515869 
	C268.859009,309.392700 235.942200,327.787964 196.773743,334.054535 
	C153.543106,340.971039 113.206047,332.741272 76.678482,308.594696 
	C47.716087,289.449066 27.052879,263.192200 14.068496,230.884750 
	C4.306736,206.595764 1.070425,181.272934 3.248402,155.489578 
	C6.228311,120.212830 19.149729,88.604454 42.707565,61.948673 
	C50.918106,52.658417 60.679546,44.738815 70.043488,36.017227 
M115.256775,198.109314 
	C115.522217,198.300140 115.787659,198.490967 115.591843,199.217285 
	C107.915253,204.208664 100.177505,209.109451 92.588928,214.231247 
	C89.014404,216.643814 85.611710,219.347702 82.341415,222.163788 
	C79.184883,224.881882 78.803505,227.845016 81.958717,231.146622 
	C87.247780,236.681061 91.835266,242.972916 97.551857,247.997284 
	C127.121567,273.986542 161.415268,286.390564 200.710632,279.803833 
	C224.630127,275.794403 243.701187,262.834229 250.677872,238.433762 
	C259.291107,208.309616 258.021790,178.459412 241.537735,150.572449 
	C236.997696,142.891815 232.490005,135.192032 228.024033,127.597244 
	C233.692764,123.748055 241.437225,122.340645 244.955963,113.385155 
	C238.159195,114.033272 232.822372,114.542168 227.485550,115.051064 
	C230.372086,112.899834 233.763275,111.845459 236.480835,109.866203 
	C239.551666,107.629639 242.017303,104.562149 244.746140,101.856018 
	C241.833969,99.587357 239.253830,96.256584 235.954849,95.225288 
	C216.935745,89.279694 197.989044,82.743279 178.551331,78.590591 
	C156.289795,73.834618 134.746887,77.320412 115.798325,91.205505 
	C107.073654,97.598747 100.641045,105.550659 98.677567,116.612045 
	C97.360085,124.034180 98.698799,130.959915 102.335281,137.319626 
	C107.733490,146.760361 107.836716,156.276459 103.841957,166.100006 
	C102.592148,169.173431 101.216484,172.196884 100.015732,175.288773 
	C97.128372,182.723572 94.328148,190.192169 91.455688,197.632828 
	C90.334747,200.536453 91.128090,202.800888 94.139717,203.367966 
	C96.841850,203.876770 99.953201,204.227661 102.447502,203.373489 
	C106.654091,201.932968 110.515472,199.484375 115.256775,198.109314 
z"/>
<path fill="#040404" opacity="1.000000" stroke="none" 
	d="
M401.907898,171.168457 
	C399.172241,156.564041 395.661163,142.454025 394.091187,128.131226 
	C392.459869,113.248764 395.249664,110.814072 410.210907,111.233284 
	C427.834137,111.727081 442.011688,118.791489 451.069183,134.568634 
	C456.044006,143.234268 456.890289,152.255112 452.793304,161.382111 
	C447.830139,172.438812 439.994171,181.202240 428.413452,185.083328 
	C412.394043,190.451996 404.807800,185.756348 401.907898,171.168457 
M428.201843,132.244766 
	C424.558228,130.771408 421.028290,128.673538 417.241913,127.984428 
	C412.617096,127.142708 408.973602,129.941345 409.170258,134.611923 
	C409.503113,142.517670 410.733215,150.415314 412.058655,158.236298 
	C412.661591,161.794159 415.682770,162.898972 419.044342,161.854553 
	C435.065948,156.876694 438.330231,142.764923 428.201843,132.244766 
z"/>
<path fill="#060605" opacity="1.000000" stroke="none" 
	d="
M512.169067,267.129730 
	C503.190094,264.065125 499.028351,257.435638 498.087036,248.990677 
	C496.161316,231.714005 501.105896,216.339417 512.728577,203.390808 
	C520.547241,194.680222 529.979431,193.261078 539.419861,199.568054 
	C534.728760,201.859787 530.722290,204.410080 526.348816,205.828003 
	C517.720703,208.625336 513.888184,214.659378 513.036499,223.196136 
	C512.772339,225.844391 512.411194,228.485855 512.237671,231.139786 
	C511.513123,242.221054 520.332703,251.301514 531.428711,250.954559 
	C536.250732,250.803787 538.389343,248.544678 538.217834,243.748856 
	C538.140564,241.588501 538.010376,239.430084 537.917725,237.270218 
	C537.714294,232.527985 536.797852,228.745392 530.534302,229.117767 
	C529.141663,229.200546 526.692200,226.779434 526.367004,225.178558 
	C526.052490,223.629929 527.571960,220.337204 528.765442,220.085648 
	C534.681824,218.838699 540.767456,217.796402 546.769653,217.912964 
	C548.615967,217.948837 551.688049,221.724014 551.961121,224.049667 
	C553.001709,232.913727 553.603149,241.893219 553.450012,250.813812 
	C553.322388,258.253296 548.549500,263.092957 541.625061,265.287506 
	C532.147339,268.291290 522.421936,269.148102 512.169067,267.129730 
z"/>
<path fill="#050505" opacity="1.000000" stroke="none" 
	d="
M675.014526,262.889709 
	C673.804810,257.758087 671.792542,252.911682 671.970764,248.147186 
	C672.411133,236.371017 673.631958,224.605804 675.027161,212.894333 
	C675.464294,209.225174 677.029785,205.506088 678.836121,202.227036 
	C681.628906,197.157135 686.811462,195.256454 692.508728,196.410706 
	C710.133667,199.981476 725.353638,225.102615 720.376343,242.352356 
	C718.130676,250.135147 713.401917,256.171112 706.301270,259.661163 
	C699.953247,262.781281 693.098083,264.980988 686.299316,267.031921 
	C682.048523,268.314240 678.056702,266.956146 675.014526,262.889709 
M683.942200,231.456146 
	C683.994019,234.285904 683.895264,237.128479 684.135071,239.942215 
	C684.451050,243.650925 686.360779,245.553436 690.172485,243.973495 
	C693.693787,242.513931 697.304077,241.083176 700.491943,239.041367 
	C708.437744,233.952057 709.304138,226.714386 702.841919,219.799652 
	C700.133606,216.901718 696.999634,214.365738 693.871155,211.904236 
	C688.537109,207.707382 685.001526,209.124008 684.234558,216.025681 
	C683.704773,220.792374 684.010193,225.651886 683.942200,231.456146 
z"/>
<path fill="#060605" opacity="1.000000" stroke="none" 
	d="
M606.968018,248.862869 
	C604.755554,253.175888 603.229309,257.613678 600.389465,260.924805 
	C591.752502,270.994904 575.750549,269.402740 568.708252,258.158966 
	C560.424927,244.933838 562.648315,220.299973 573.165527,208.773849 
	C582.560059,198.478119 596.240051,199.673660 603.259338,211.756775 
	C609.975220,223.317505 610.441589,235.751526 606.968018,248.862869 
M582.183228,249.011002 
	C592.296387,243.431961 595.784912,224.977173 588.707336,214.497864 
	C585.760681,210.134933 582.569214,210.026871 579.149292,214.174271 
	C572.649048,222.057190 571.296631,236.683365 576.565063,245.563934 
	C577.498901,247.138077 579.762329,247.923538 582.183228,249.011002 
z"/>
<path fill="#050605" opacity="1.000000" stroke="none" 
	d="
M575.097534,148.144348 
	C577.398071,137.831635 579.434143,127.905052 582.043274,118.131409 
	C582.959656,114.698380 584.943115,111.399208 587.035217,108.463531 
	C590.976501,102.932976 595.230591,102.470222 600.640869,106.598236 
	C612.990051,116.020599 618.515381,129.149536 619.825867,144.070953 
	C620.383179,150.416626 619.619934,157.008331 618.476990,163.310547 
	C618.007324,165.900482 615.175598,169.596344 613.010864,169.901764 
	C610.954468,170.191864 607.595947,167.168884 606.185730,164.787857 
	C603.849548,160.843414 602.452087,156.301163 600.962646,151.907852 
	C599.217346,146.760071 596.647705,144.685684 592.030701,145.276016 
	C587.082458,145.908722 584.133972,149.244644 583.889954,154.346527 
	C583.707642,158.157532 583.571106,161.982742 583.111023,165.764755 
	C582.727966,168.913971 580.723450,171.513748 577.541748,170.661346 
	C576.008545,170.250610 574.360596,167.015747 574.294006,165.008957 
	C574.112793,159.550659 574.747314,154.065277 575.097534,148.144348 
M595.618774,122.174728 
	C593.916260,119.926048 592.081848,119.601036 590.593567,122.228683 
	C589.215454,124.661819 587.738220,127.192726 587.134216,129.867874 
	C586.504700,132.655899 586.007874,136.097351 590.253723,137.008926 
	C593.728699,137.754974 597.871521,135.287827 597.933472,131.790405 
	C597.986267,128.809830 596.699341,125.805511 595.618774,122.174728 
z"/>
<path fill="#060606" opacity="1.000000" stroke="none" 
	d="
M472.990845,165.127991 
	C472.957428,165.888062 472.937988,166.220383 472.902771,166.551025 
	C472.121307,173.887817 469.678467,176.644882 464.666870,175.849075 
	C460.779510,175.231796 459.314850,171.885330 461.133575,165.106110 
	C465.166656,150.073181 469.370148,135.074570 474.040131,120.230591 
	C475.499420,115.592186 478.190063,110.483292 484.098450,110.412682 
	C489.934692,110.342926 492.428741,115.473137 494.766541,119.792900 
	C502.518524,134.116638 506.132690,149.866913 509.490021,165.608521 
	C509.980133,167.906479 508.175201,171.777298 506.201630,173.146286 
	C504.827087,174.099747 500.505707,172.790070 498.989441,171.130875 
	C496.055481,167.920334 493.829254,163.911407 491.950653,159.930878 
	C490.093689,155.996124 489.312988,151.470963 483.411713,151.953613 
	C477.777802,152.414398 474.629181,155.202362 473.369141,161.233871 
	C473.132721,162.365570 473.115692,163.543076 472.990845,165.127991 
M474.882782,135.822983 
	C475.680115,138.280899 476.477448,140.738800 477.274811,143.196701 
	C479.770325,141.855820 482.408356,140.712769 484.687317,139.071259 
	C485.532898,138.462219 485.835846,136.691666 485.868011,135.437500 
	C485.967316,131.566833 484.764252,127.720154 480.860596,126.869812 
	C479.590729,126.593193 477.335571,130.531738 475.655914,132.641739 
	C475.183868,133.234756 475.155365,134.180832 474.882782,135.822983 
z"/>
<path fill="#070707" opacity="1.000000" stroke="none" 
	d="
M635.849731,198.662384 
	C647.870422,195.398636 653.991699,198.249634 658.123718,209.415909 
	C663.015625,222.635590 663.271606,236.126297 658.765747,249.503052 
	C656.441101,256.403992 652.429932,262.187988 644.441956,263.155334 
	C636.150513,264.159424 629.989746,260.262939 625.463928,253.600418 
	C616.947998,241.064209 617.248718,218.316345 626.430725,206.344635 
	C628.763367,203.303192 632.429199,201.284271 635.849731,198.662384 
M640.315002,207.344177 
	C635.806946,207.300888 632.749634,209.662323 630.856384,213.482529 
	C626.665833,221.938126 625.990356,230.764252 629.983887,239.337906 
	C631.166992,241.877914 634.501343,244.699554 637.068970,244.927780 
	C639.355591,245.131042 642.780090,242.453079 644.244263,240.128311 
	C648.616760,233.186005 649.955444,225.270966 648.822388,217.161423 
	C648.190430,212.638565 646.626648,208.317474 640.315002,207.344177 
z"/>
<path fill="#060605" opacity="1.000000" stroke="none" 
	d="
M519.397217,115.444412 
	C535.442261,113.256119 551.076050,111.062950 566.757751,109.294075 
	C569.370422,108.999367 572.191467,110.551125 574.916199,111.249626 
	C572.794312,113.241333 570.834534,115.460831 568.484802,117.132133 
	C567.242371,118.015831 565.331848,118.004326 563.704834,118.295731 
	C554.835388,119.884300 551.292358,123.693947 551.271484,132.816605 
	C551.258240,138.611008 552.335815,144.401154 552.487793,150.204636 
	C552.625977,155.480133 552.692322,160.856415 551.839233,166.031494 
	C550.964233,171.339966 546.278320,175.469833 542.740845,175.367920 
	C538.494263,175.245590 534.183411,171.457123 533.690674,165.551422 
	C532.989868,157.150696 533.430725,148.654648 533.386475,140.199326 
	C533.378723,138.711472 533.479126,137.216431 533.368286,135.736801 
	C532.452515,123.514198 527.915955,120.562645 516.352783,125.073677 
	C513.019226,126.374191 510.148956,126.915031 507.114685,124.757988 
	C504.504395,122.902397 504.291901,120.799095 507.246582,119.510056 
	C511.018433,117.864510 515.070618,116.861603 519.397217,115.444412 
z"/>
<path fill="#060605" opacity="1.000000" stroke="none" 
	d="
M709.635620,113.518211 
	C726.612244,105.928970 738.980896,113.876823 739.140869,132.067078 
	C739.277344,147.577530 730.558716,159.992889 717.815369,162.410233 
	C711.937561,163.525238 706.901062,161.872314 703.007751,157.374969 
	C692.564514,145.311325 695.918274,122.472290 709.635620,113.518211 
M711.303711,144.291977 
	C716.671143,145.054764 721.008911,143.070358 723.435425,138.652481 
	C725.669250,134.585403 725.232605,130.622665 722.582520,126.937569 
	C720.017151,123.370308 715.733948,122.538765 712.546387,124.820267 
	C707.285339,128.585876 706.234192,138.899658 711.303711,144.291977 
z"/>
<path fill="#060706" opacity="1.000000" stroke="none" 
	d="
M761.422119,154.123932 
	C761.417603,156.062805 761.487183,157.567413 761.392517,159.061615 
	C761.209412,161.952499 760.917480,165.648239 757.210815,165.096527 
	C754.620605,164.711014 750.585571,162.193008 750.294495,160.179489 
	C748.751831,149.508545 747.740601,138.708054 747.447205,127.927925 
	C747.254578,120.849663 751.182129,115.302444 757.249329,111.477295 
	C761.738831,108.646820 766.096191,109.019836 770.285217,112.079384 
	C780.175293,119.302795 781.490662,128.954514 773.914978,139.685379 
	C778.272400,142.017471 782.738892,144.124619 786.907043,146.712341 
	C791.823608,149.764694 792.897705,153.231201 790.702209,157.077423 
	C788.163757,161.524384 783.517517,162.760925 778.622864,159.858078 
	C773.222839,156.655502 768.039795,153.087280 762.026550,149.203110 
	C761.740784,151.321884 761.581421,152.503433 761.422119,154.123932 
M759.446777,123.688576 
	C758.425293,124.731003 757.089050,125.609047 756.442444,126.847221 
	C754.641724,130.295395 756.205627,135.718750 758.976624,135.498383 
	C761.131592,135.327011 763.893127,133.931885 765.029663,132.194122 
	C766.266724,130.302734 766.624146,127.190102 765.993652,125.005753 
	C765.694946,123.971001 762.203674,123.857735 759.446777,123.688576 
z"/>
<path fill="#060606" opacity="1.000000" stroke="none" 
	d="
M681.043579,146.069092 
	C672.387146,146.162201 670.975647,147.872955 672.413086,155.986435 
	C672.616089,157.132416 673.091248,158.304825 672.977844,159.417847 
	C672.668518,162.451797 674.790649,166.438873 670.137451,167.945038 
	C666.267395,169.197708 660.329834,166.653427 658.584351,162.896988 
	C657.761597,161.126358 657.256287,159.081390 657.142700,157.129562 
	C656.591370,147.657776 656.027100,138.179184 655.844116,128.695724 
	C655.674377,119.896851 658.154175,116.114464 666.558472,113.473740 
	C672.526672,111.598450 678.829895,110.698364 685.039978,109.721458 
	C688.282043,109.211464 691.265686,110.481682 691.767212,114.133469 
	C692.311462,118.095970 689.345886,119.072525 686.125671,119.537338 
	C683.162354,119.965065 680.164490,120.315353 677.277161,121.066086 
	C673.816956,121.965767 671.443298,124.114349 670.881409,127.915024 
	C670.163452,132.771042 671.454895,134.135971 676.420593,133.830917 
	C678.230286,133.719727 680.089294,133.797531 681.878601,134.083908 
	C686.916016,134.890152 689.547852,137.718124 689.136169,141.943909 
	C688.646362,146.970657 684.602722,145.727280 681.043579,146.069092 
z"/>
<path fill="#070B08" opacity="1.000000" stroke="none" 
	d="
M114.522034,197.459717 
	C110.515472,199.484375 106.654091,201.932968 102.447502,203.373489 
	C99.953201,204.227661 96.841850,203.876770 94.139717,203.367966 
	C91.128090,202.800888 90.334747,200.536453 91.455688,197.632828 
	C94.328148,190.192169 97.128372,182.723572 100.015732,175.288773 
	C101.216484,172.196884 102.592148,169.173431 103.841957,166.100006 
	C107.836716,156.276459 107.733490,146.760361 102.335281,137.319626 
	C98.698799,130.959915 97.360085,124.034180 98.677567,116.612045 
	C100.641045,105.550659 107.073654,97.598747 115.798325,91.205505 
	C134.746887,77.320412 156.289795,73.834618 178.551331,78.590591 
	C197.989044,82.743279 216.935745,89.279694 235.954849,95.225288 
	C239.253830,96.256584 241.833969,99.587357 244.746124,101.856018 
	C242.017303,104.562149 239.551666,107.629639 236.480835,109.866203 
	C233.763275,111.845459 230.372086,112.899834 227.485550,115.051064 
	C232.822372,114.542168 238.159195,114.033272 244.955963,113.385155 
	C241.437225,122.340645 233.692764,123.748055 228.024033,127.597244 
	C232.490005,135.192032 236.997696,142.891815 241.537735,150.572449 
	C258.021790,178.459412 259.291107,208.309616 250.677872,238.433762 
	C243.701187,262.834229 224.630127,275.794403 200.710632,279.803833 
	C161.415268,286.390564 127.121567,273.986542 97.551857,247.997284 
	C91.835266,242.972916 87.247780,236.681061 81.958717,231.146622 
	C78.803505,227.845016 79.184883,224.881882 82.341415,222.163788 
	C85.611710,219.347702 89.014404,216.643814 92.588928,214.231247 
	C100.177505,209.109451 107.915253,204.208664 116.127655,198.824860 
	C115.949654,198.108185 115.235840,197.783951 114.522034,197.459717 
M149.797638,172.057556 
	C141.715073,177.677719 133.632492,183.297867 124.461502,189.674835 
	C130.441238,187.812378 135.274826,186.306900 140.108414,184.801437 
	C140.468155,185.384064 140.827896,185.966705 141.187653,186.549347 
	C139.599731,187.893478 138.015381,189.241852 136.423340,190.581085 
	C123.040909,201.838440 109.718132,213.168106 96.232727,224.300751 
	C92.656136,227.253357 92.095032,229.816315 95.348198,233.317642 
	C105.477951,244.220154 116.086952,254.585648 129.468964,261.449585 
	C146.832458,270.355743 165.454788,273.689178 184.904053,274.272949 
	C199.575562,274.713287 212.804901,271.152466 224.194016,262.414856 
	C230.235245,257.780090 236.221436,251.871933 239.605011,245.205093 
	C248.907806,226.875290 251.560760,206.876297 247.119263,186.853317 
	C242.747864,167.146378 234.984222,148.477966 223.434113,131.679001 
	C221.002762,128.142731 220.550919,125.437767 224.468384,122.897606 
	C225.027557,122.535019 225.373520,121.843605 225.806793,121.318169 
	C223.615265,120.699371 221.416595,120.636963 219.968781,119.562645 
	C215.988388,116.609146 216.558640,112.349930 221.246109,109.485481 
	C225.240921,107.044327 229.420624,104.905701 234.799362,101.922966 
	C230.929367,99.690781 228.670319,98.033051 226.155548,96.994629 
	C209.324844,90.044823 191.966141,84.765320 173.903275,82.349434 
	C153.651855,79.640839 134.754486,83.017807 118.498779,96.479172 
	C107.815704,105.325844 103.186752,116.391159 106.068314,130.147781 
	C106.987000,134.533585 108.305542,138.862854 109.785583,143.097610 
	C112.120712,149.778946 115.383575,155.615082 123.768219,155.780289 
	C124.887505,155.802338 125.995079,156.418579 127.658516,157.030411 
	C134.467819,160.399429 141.319717,163.686676 148.056503,167.194962 
	C149.741699,168.072571 152.378021,169.017944 149.797638,172.057556 
M107.610512,171.111969 
	C104.488205,177.443314 101.196297,183.700821 98.382217,190.166306 
	C97.797310,191.510132 98.983124,193.624664 99.352882,195.384003 
	C101.383904,194.808334 104.178146,194.877243 105.307465,193.540039 
	C109.197670,188.933762 112.506279,183.836273 116.175110,178.733047 
	C113.577278,178.461395 111.148956,178.207458 107.745773,177.851593 
	C110.734871,174.119171 113.040863,171.239716 115.346855,168.360260 
	C114.973991,167.941696 114.601135,167.523132 114.228271,167.104568 
	C112.191551,168.270172 110.154831,169.435791 107.610512,171.111969 
z"/>
<path fill="#F5F8E2" opacity="1.000000" stroke="none" 
	d="
M428.475464,132.490311 
	C438.330231,142.764923 435.065948,156.876694 419.044342,161.854553 
	C415.682770,162.898972 412.661591,161.794159 412.058655,158.236298 
	C410.733215,150.415314 409.503113,142.517670 409.170258,134.611923 
	C408.973602,129.941345 412.617096,127.142708 417.241913,127.984428 
	C421.028290,128.673538 424.558228,130.771408 428.475464,132.490311 
z"/>
<path fill="#F6F9E3" opacity="1.000000" stroke="none" 
	d="
M683.942261,230.963028 
	C684.010193,225.651886 683.704773,220.792374 684.234558,216.025681 
	C685.001526,209.124008 688.537109,207.707382 693.871155,211.904236 
	C696.999634,214.365738 700.133606,216.901718 702.841919,219.799652 
	C709.304138,226.714386 708.437744,233.952057 700.491943,239.041367 
	C697.304077,241.083176 693.693787,242.513931 690.172485,243.973495 
	C686.360779,245.553436 684.451050,243.650925 684.135071,239.942215 
	C683.895264,237.128479 683.994019,234.285904 683.942261,230.963028 
z"/>
<path fill="#F5F8E3" opacity="1.000000" stroke="none" 
	d="
M581.797485,249.042099 
	C579.762329,247.923538 577.498901,247.138077 576.565063,245.563934 
	C571.296631,236.683365 572.649048,222.057190 579.149292,214.174271 
	C582.569214,210.026871 585.760681,210.134933 588.707336,214.497864 
	C595.784912,224.977173 592.296387,243.431961 581.797485,249.042099 
z"/>
<path fill="#F2F5E0" opacity="1.000000" stroke="none" 
	d="
M595.811951,122.493210 
	C596.699341,125.805511 597.986267,128.809830 597.933472,131.790405 
	C597.871521,135.287827 593.728699,137.754974 590.253723,137.008926 
	C586.007874,136.097351 586.504700,132.655899 587.134216,129.867874 
	C587.738220,127.192726 589.215454,124.661819 590.593567,122.228683 
	C592.081848,119.601036 593.916260,119.926048 595.811951,122.493210 
z"/>
<path fill="#EEF1DC" opacity="1.000000" stroke="none" 
	d="
M474.903107,135.393967 
	C475.155365,134.180832 475.183868,133.234756 475.655914,132.641739 
	C477.335571,130.531738 479.590729,126.593193 480.860596,126.869812 
	C484.764252,127.720154 485.967316,131.566833 485.868011,135.437500 
	C485.835846,136.691666 485.532898,138.462219 484.687317,139.071259 
	C482.408356,140.712769 479.770325,141.855820 477.274811,143.196701 
	C476.477448,140.738800 475.680115,138.280899 474.903107,135.393967 
z"/>
<path fill="#F5F8E3" opacity="1.000000" stroke="none" 
	d="
M640.686401,207.424759 
	C646.626648,208.317474 648.190430,212.638565 648.822388,217.161423 
	C649.955444,225.270966 648.616760,233.186005 644.244263,240.128311 
	C642.780090,242.453079 639.355591,245.131042 637.068970,244.927780 
	C634.501343,244.699554 631.166992,241.877914 629.983887,239.337906 
	C625.990356,230.764252 626.665833,221.938126 630.856384,213.482529 
	C632.749634,209.662323 635.806946,207.300888 640.686401,207.424759 
z"/>
<path fill="#F3F6E1" opacity="1.000000" stroke="none" 
	d="
M710.951294,144.110809 
	C706.234192,138.899658 707.285339,128.585876 712.546387,124.820267 
	C715.733948,122.538765 720.017151,123.370308 722.582520,126.937569 
	C725.232605,130.622665 725.669250,134.585403 723.435425,138.652481 
	C721.008911,143.070358 716.671143,145.054764 710.951294,144.110809 
z"/>
<path fill="#EEF1DC" opacity="1.000000" stroke="none" 
	d="
M759.802856,123.507782 
	C762.203674,123.857735 765.694946,123.971001 765.993652,125.005753 
	C766.624146,127.190102 766.266724,130.302734 765.029663,132.194122 
	C763.893127,133.931885 761.131592,135.327011 758.976624,135.498383 
	C756.205627,135.718750 754.641724,130.295395 756.442444,126.847221 
	C757.089050,125.609047 758.425293,124.731003 759.802856,123.507782 
z"/>
<path fill="#2FD2D2" opacity="1.000000" stroke="none" 
	d="
M127.108086,156.759644 
	C125.995079,156.418579 124.887505,155.802338 123.768219,155.780289 
	C115.383575,155.615082 112.120712,149.778946 109.785583,143.097610 
	C108.305542,138.862854 106.987000,134.533585 106.068314,130.147781 
	C103.186752,116.391159 107.815704,105.325844 118.498779,96.479172 
	C134.754486,83.017807 153.651855,79.640839 173.903275,82.349434 
	C191.966141,84.765320 209.324844,90.044823 226.155548,96.994629 
	C228.670319,98.033051 230.929367,99.690781 234.799362,101.922966 
	C229.420624,104.905701 225.240921,107.044327 221.246109,109.485481 
	C216.558640,112.349930 215.988388,116.609146 219.968781,119.562645 
	C221.416595,120.636963 223.615265,120.699371 225.806793,121.318169 
	C225.373520,121.843605 225.027557,122.535019 224.468384,122.897606 
	C220.550919,125.437767 221.002762,128.142731 223.434113,131.679001 
	C234.984222,148.477966 242.747864,167.146378 247.119263,186.853317 
	C251.560760,206.876297 248.907806,226.875290 239.605011,245.205093 
	C236.221436,251.871933 230.235245,257.780090 224.194016,262.414856 
	C212.804901,271.152466 199.575562,274.713287 184.904053,274.272949 
	C165.454788,273.689178 146.832458,270.355743 129.468964,261.449585 
	C116.086952,254.585648 105.477951,244.220154 95.348198,233.317642 
	C92.095032,229.816315 92.656136,227.253357 96.232727,224.300751 
	C109.718132,213.168106 123.040909,201.838440 136.423340,190.581085 
	C138.015381,189.241852 139.599731,187.893478 141.187653,186.549347 
	C140.827896,185.966705 140.468155,185.384064 140.108414,184.801437 
	C135.274826,186.306900 130.441238,187.812378 124.461502,189.674835 
	C133.632492,183.297867 141.715073,177.677719 150.501022,172.237701 
	C155.620712,172.260361 160.342438,173.065140 164.399963,171.777283 
	C181.142944,166.463089 191.378464,149.717346 188.991898,132.382935 
	C187.963776,124.915161 184.288757,119.567131 176.758545,116.904556 
	C163.618088,112.258301 151.619247,114.501091 140.217682,121.907097 
	C126.198189,131.013596 122.487572,140.844757 127.108086,156.759644 
z"/>
<path fill="#F5AB24" opacity="1.000000" stroke="none" 
	d="
M127.383301,156.895020 
	C122.487572,140.844757 126.198189,131.013596 140.217682,121.907097 
	C151.619247,114.501091 163.618088,112.258301 176.758545,116.904556 
	C184.288757,119.567131 187.963776,124.915161 188.991898,132.382935 
	C191.378464,149.717346 181.142944,166.463089 164.399963,171.777283 
	C160.342438,173.065140 155.620712,172.260361 150.817520,172.184616 
	C152.378021,169.017944 149.741699,168.072571 148.056503,167.194962 
	C141.319717,163.686676 134.467819,160.399429 127.383301,156.895020 
M138.613663,141.133057 
	C135.940842,143.361099 134.058395,146.636826 136.234299,149.297607 
	C137.552475,150.909515 141.452866,150.458954 144.209366,150.805954 
	C144.793716,150.879532 145.491089,150.468735 146.064758,150.151596 
	C154.609955,145.427643 163.211899,140.798111 171.610168,135.824982 
	C172.982697,135.012207 173.444199,132.660995 174.326767,131.020844 
	C172.670395,130.585815 170.928680,129.576691 169.371384,129.808182 
	C158.606354,131.408463 148.391571,134.674210 138.613663,141.133057 
z"/>
<path fill="#F0F0F0" opacity="1.000000" stroke="none" 
	d="
M107.864311,170.856689 
	C110.154831,169.435791 112.191551,168.270172 114.228271,167.104568 
	C114.601135,167.523132 114.973991,167.941696 115.346855,168.360260 
	C113.040863,171.239716 110.734871,174.119171 107.745773,177.851593 
	C111.148956,178.207458 113.577278,178.461395 116.175110,178.733047 
	C112.506279,183.836273 109.197670,188.933762 105.307465,193.540039 
	C104.178146,194.877243 101.383904,194.808334 99.352882,195.384003 
	C98.983124,193.624664 97.797310,191.510132 98.382217,190.166306 
	C101.196297,183.700821 104.488205,177.443314 107.864311,170.856689 
z"/>
<path fill="#EAFC83" opacity="1.000000" stroke="none" 
	d="
M114.889404,197.784515 
	C115.235840,197.783951 115.949654,198.108185 116.358276,198.557098 
	C115.787659,198.490967 115.522217,198.300140 114.889404,197.784515 
z"/>
<path fill="#070501" opacity="1.000000" stroke="none" 
	d="
M138.904083,140.910767 
	C148.391571,134.674210 158.606354,131.408463 169.371384,129.808182 
	C170.928680,129.576691 172.670395,130.585815 174.326767,131.020844 
	C173.444199,132.660995 172.982697,135.012207 171.610168,135.824982 
	C163.211899,140.798111 154.609955,145.427643 146.064758,150.151596 
	C145.491089,150.468735 144.793716,150.879532 144.209366,150.805954 
	C141.452866,150.458954 137.552475,150.909515 136.234299,149.297607 
	C134.058395,146.636826 135.940842,143.361099 138.904083,140.910767 
z"/>
</svg>